<svg version="1" xmlns="http://www.w3.org/2000/svg" width="1333.333" height="1333.333" viewBox="0 0 1000.000000 1000.000000"><path d="M401 36.6c0 .3 1 1.4 2.2 2.3 2.1 1.8 1.8 4.3-.5 3.7-.7-.1-.9-.1-.4.1.4.3.7 1.4.7 2.6.1 2.1.2 2.1 2.5-.5 1.5-1.8 2.5-2.3 2.8-1.5.3.7.6-.4.6-2.5.1-3.1-.2-3.5-1.8-3.1-1 .3-2.2 0-2.5-.6-.7-1.1-3.6-1.5-3.6-.5zM411 39c0 2.4 1.5 2.7 2.4.4.9-2.2.8-2.4-.9-2.4-.8 0-1.5.9-1.5 2zM394.1 40.3c-.8 1.1-.5 1.6 1.5 2.5 3.3 1.6 3.9 1.5 2.4-.3-.6-.8-.9-1.9-.5-2.5.9-1.5-2.1-1.2-3.4.3zM416 40c0 .5.7 1 1.6 1 .8 0 1.2-.5.9-1-.3-.6-1-1-1.6-1-.5 0-.9.4-.9 1z"/><path d="M420.3 43.1c.1 1.6-.4 2.2-2 2.4-1.7.1-2.3-.4-2.3-1.9-.1-1.9-.2-1.9-1.5.4-1.1 1.9-1.4 2.1-1.5.7 0-.9-.4-1.7-1-1.7-.5 0-1 1.9-.9 4.2.1 3.7.2 3.9.9 1.8.4-1.4.8-1.9.9-1.1.1 1.1.4 1.1 1.6.1 1.7-1.5 1.6-.8-2.4 8.3-1.1 2.6-2 5.1-1.9 5.5.1.4-.8 2.3-2 4.2-2.3 3.7-2.7 3.2-2.3-3l.2-2.5-1.4 2.5c-.7 1.4-1.6 3.4-2 4.4-.6 1.6-.5 1.7.8.6 2-1.6 1.9-1.2-.5 4.3-1.2 2.6-2.7 7.7-3.4 11.4-1.2 6.1-1.4 6.4-1.5 2.7 0-2.3.6-6.1 1.4-8.5 1.2-3.2 1.2-4.4.4-5-.9-.5-.6-2 1-5.4 1.2-2.6 2-4.9 1.8-5.2-1-1-4.7 5.2-4.7 7.9 0 1.6-.8 3.7-1.7 4.6-1.6 1.6-1.6 1.6-1.1-.6.5-1.9.3-2.3-1.5-2-1.3.2-2.3 1.3-2.7 2.8-.3 1.4-1.2 2.5-2 2.5-.7 0-1.5.5-1.7 1.2-.3.7.3.9 1.6.6 1.2-.3 2.1-.1 2.1.6 0 .6-.4 1.1-1 1.1-.5 0-1 1.4-1 3.1 0 1.9-.4 2.8-1.1 2.3-.7-.4-.7.1.1 1.6 1.6 3 .8 3.4-1.8 1-1.3-1.3-2.2-3.3-2.2-5.1 0-3.5 2.8-10.1 4-9.4.4.3 1.3-.2 2-1 .9-1.1 1-1.8.1-2.9-.9-1.1-.7-1.5.8-1.9 1.1-.3 2.2 0 2.5.7.3.7.5.7.5-.2.1-.6.8-1.2 1.7-1.2.9 0 1.4-.6 1.1-1.3-.2-.6.4-2.2 1.5-3.4 1.1-1.2 1.8-3.1 1.6-4.5-.3-2.2-.4-2.1-1.8.9-1.7 3.8-4 5.1-4 2.4 0-1.1-.5-2.1-1.2-2.3-.7-.3-.5-.7.6-1.1 1-.4 1.5-.3 1.1.3-.3.6.1 1 1 1 1.3 0 1.5-.5 1-1.8-.4-.9-.7-2.5-.7-3.4 0-1.1-.4-1.5-1.5-1.1-1.2.5-1.4.1-.8-1.5.8-2.8.3-2.7-4.3.2-2 1.2-4.6 2.2-5.7 2-1.3-.2-2.6.5-3.4 1.7-.9 1.6-.9 1.9 0 1.4.8-.5 1-.4.5.3-1.1 1.8-2.4 1.4-2.8-.7-.3-1.9-.4-1.9-2.9.2-2.7 2.2-5.3 7.7-3 6.3.6-.4 1.1-.1 1.1.6 0 1.7-3.6 4.9-4.5 4-.3-.4-1.5.4-2.5 1.8-3.1 4-2.3 1 1-4 3.2-4.8 3.9-7 1.7-5.1-.8.6-1.7.8-2.1.4-.4-.4-.4 0 0 1 .4 1.1 0 1.9-.9 2.3-.9.3-1.3 1.2-1 2 .3.9-.1 1.4-1.2 1.4-1.1 0-1.5.5-1.1 1.6.3.8.2 1.2-.4.9-1-.6-1.8 2.2-1.8 6.5-.1 2.3.1 2.2 1.9-1 1.1-1.9 1.8-2.7 1.5-1.8-.3 1 0 1.8.6 1.8.7 0 .5.5-.4 1.2-1.7 1.4-3.4 8.3-1.8 7.3.6-.3 1-.2 1 .4 0 .5-.4 1.2-1 1.6-.5.3-.7 1.2-.3 2 .3.8.1 1.5-.5 1.5s-1.2-.5-1.4-1.1c-.7-2-3.6.3-4.2 3.4-.5 2.5-.9 2.9-1.6 1.7-.5-.8-.7-2.3-.4-3.4.4-1.3.2-1.7-.7-1.4-.8.3-1.5 1.7-1.7 3.1-.5 4.5-3.2 2.5-3.2-2.3 0-1-.5-2.2-1.2-2.6-.6-.4-.9-.3-.5.2.3.5.2 2.5-.3 4.4-.7 3.1-.8 3.2-.9.8-.2-5.9-3.8-4.1-6.8 3.6-1.3 3-1.3 3-.9-1.7.3-5.3-.9-7.1-2.3-3.4-1.2 3.1-3.1 4.4-3.1 2.1 0-1.6-.1-1.6-1.4.1-1.1 1.5-1.7 1.7-2.8.7-.8-.6-1.8-.9-2.1-.5-.4.3-.7-.2-.7-1.3 0-1.5-.2-1.6-.9-.4-.6.8-.7 1.8-.5 2.2.3.4 0 1.6-.6 2.5-.9 1.6-1 1.5-.5-.5.5-1.6.2-2.2-.9-2.2-.9 0-1.6-.7-1.6-1.5 0-.9.6-1.2 1.5-.9 1.1.5 1.3.2.9-1-.8-2.1-1.7-2-3.9.4-1 1.1-2.4 2-3.1 2-.7 0-1.5.6-1.7 1.2-.3.8-.6.5-.6-.5-.1-1.4-.6-1.7-2.2-1.2-1.5.5-1.9.4-1.5-.4 1.1-1.7-2-1.3-3.4.4-.7.8-1.4 3.2-1.5 5.3-.1 2.1-.7 4.7-1.3 5.9-.6 1.1-1.1 3.6-1 5.4 0 1.9-.8 5.2-1.9 7.4-1.1 2.2-2.4 5.5-2.8 7.2-.3 1.8-1.1 3.5-1.5 3.8-.5.3-.2-1.6.6-4.2.9-2.6 2.2-6.8 3-9.2 1.6-5.1 1.8-9.5.4-8.6-.5.3-1 2.2-1 4.1 0 1.9-.4 3.4-.8 3.4-2.2 0 .1-11.7 2.9-14.3 2.5-2.3 2.7-7.2.2-6.2-3.6 1.5-5.3 1.7-5.3.7 0-2.3-4.2.3-6.3 3.9-2.2 3.8-3.7 5-3.7 2.8 0-.6-1.1.3-2.5 1.9-1.4 1.7-2.5 3.5-2.5 4.1 0 .6-.4 1.1-.8 1.1-.5 0-1.7 1.7-2.6 3.7-1.8 4.1-5.1 10.1-5.9 11-.3.2-.2-1.2.3-3.1.9-4.2-.4-4.8-1.9-.9-.9 2.4-1 2-.6-2.5.3-2.9.8-6 1.1-7 .4-.9-.4-.2-1.6 1.7-1.2 1.9-2.4 4.9-2.7 6.8-.3 1.8-1.1 3.3-1.9 3.3-.7 0-1.5.6-1.7 1.2-.2.7-.3.1-.1-1.5.4-3.1-2.3-3.9-3.2-1-.3 1-1.4 3.5-2.4 5.5-1.1 2-2 4.6-2 5.6 0 1.1-.7 2.5-1.5 3.2-.9.7-2.1 3.3-2.7 5.8-1.1 4.3-1.2 4.4-2.1 2.1-.9-2.3-1.4-5.6-1.7-10.9-.1-1.6-.6-.8-1.4 2.5l-1.2 5-.7-3.3c-.7-3.7-2.1-4.1-3.7-1.2-.6 1.1-1.7 2-2.5 2s-2.6 2.1-3.9 4.7c-1.4 2.7-2.5 4.2-2.6 3.5-.1-4.3-4 3-4 7.7 0 1.2-.9 3.9-1.9 5.9-1.1 2.1-2.2 6-2.6 8.7-.4 2.8-1.4 6.1-2.3 7.5-1.8 2.8-2.7 8.6-1.4 9.4.4.2.9-1 .9-2.9.1-1.9 1-4.3 2.1-5.5l2-2.1.7 4.8c.4 3.1.3 4.9-.4 5.1-.6.2-1.1 1.7-1.1 3.4 0 2.3-.3 2.8-1.2 2.1-.7-.6-2.5-1.3-4-1.7-2.5-.6-2.6-.4-2.3 3.2.5 6.7 2.8 10.4 5.5 8.7.5-.3 1.1-.1 1.5.5.3.5.1 1-.4 1-.6 0-1.1.3-1 .7.4 2.9-1.6 5.3-5 5.9-5 .9-5.5 1.3-3.6 3.4 1.1 1.3 1.4 2.6 1 4.2-.6 1.9-.5 2.1.6 1 1.6-1.4 3.9-1.6 3.9-.2 0 .5-.7 1-1.5 1s-1.5.6-1.6 1.2c-.1.7-.2 4-.3 7.4-.2 3.3-.6 6.6-1 7.3-1.6 2.5.3 2.1 3.4-.8 1.8-1.6 2.9-3.4 2.6-4-.5-.7.2-1.1 1.8-1.1 3.1 0 3.4 1.6.7 2.5-2 .6-3.8 4.1-2.7 5.2.3.3-.2 1.2-1 2.1-1.4 1.4-1.4 1.6.3 2.6 2.4 1.5 2.8 4.2.9 7.1-.9 1.4-1.6 2.8-1.6 3.3 0 1.3 6.7.7 8.6-.9 1.6-1.3 1.7-1.2 1 1.6-.8 3-6.5 12.5-7.5 12.5-1.3 0-.6 5.6.9 6.7 1.2 1 1.3 1.5.2 3.2-1.7 3-1.5 4 .4 1.3.8-1.2 2.2-2.2 3.1-2.2 1.3 0 1.4.8.8 4.7-.7 4.7-.7 4.8 1.3 3 2-1.8 2-1.8 1.2 1.7-.4 2-1.5 4.8-2.5 6.2-.9 1.4-1.4 3.1-1.2 3.7.3.7 1 .1 1.6-1.3 1.3-3.1 7.1-9.8 7.1-8.3 0 2.3-3.9 10-7.4 14.6-4 5.2-4.4 6.2-2.1 5.3 2-.7 1.9-.1-1.6 6.9l-2.9 6 .4-4.3c.3-3 .1-4.2-.7-3.9-.7.2-1.2 2.9-1.3 6.8-.1 8.2-.2 9.1-1.4 8.4-.6-.4-.6-1.5 0-3 .7-1.9.6-2.5-.4-2.5-.8 0-1.6.9-1.9 2-.3 1.1-1.1 1.9-1.8 1.8-.9-.2-1.2.9-1 3.9.1 2.5-.4 5.1-1.3 6.6-1.1 1.5-1.4 3.4-1 5.4.3 1.8.1 3.3-.5 3.7-1.3.8-1.5 6.6-.3 6.6.4 0 1.3-.5 2-1.2.9-.9 1.2-.8 1.2.4 0 .9-.4 2-1 2.3-1.6 1-1.2 2.2 1 2.8 1.6.4 1.9 1.1 1.4 3.9-1.1 6.8-1.5 7.8-2.7 7.8-2.9.1-5 3-5.2 7.2-.1 2.4.3 4.6.9 5 .9.6.6 2.8-1.4 10.3-.1.5-.2 2.5-.1 4.3.1 2.5.6 3.5 2.1 3.9 2.2.6 2.3 2.4.2 3.1-.7.2-1.2-.4-1.2-1.3 0-2-3.3-1.2-6.2 1.5-1.9 1.7-1.9 1.8 1.1 3.9 3 2.1 3 2.2 1.7 6.5-.8 2.6-1 5-.5 5.7.5.8.9.9 1 .4.1-.6.2-1.5.4-2 .1-.6.3-1.5.3-2.2.3-1.7 3.1-4.3 4.8-4.3 3.6 0 .5 7.6-5 12.3-2.3 2-2.9 3.4-3.3 8.6-.4 4.4-.2 6.1.6 6.1.7 0 .9.4.6 1-.3.5-.1 1 .4 1 .6 0 1.1-.4 1.1-.9 0-1.1 6.1-4.3 6.8-3.6.8.8-.8 3.6-1.7 3-1.1-.6-2.2.8-3.7 5.1s-.2 7.4 3.1 7.4c1.5 0 2.4.4 2 1-.3.5 0 1 .7 1 1.6 0 4.1 3.7 3.3 5-.4.6-.3 1.6.2 2.2 2.2 3.5-.5 8.4-3.7 6.7-3.2-1.7-8.1-2.8-9.8-2.2-.9.3-3.5 2.1-5.8 3.9-3.4 2.7-4.5 4.6-6.9 11.8l-2.9 8.6 1.3 11.2c1.4 11.8 1.7 12.6 9.8 25.8 4.1 6.7 6.9 14.5 12.3 34 3.6 13.1 6.6 22.1 8.8 26.5 2.7 5.3 10.3 15.4 13.2 17.5 2.1 1.5 2.9 3.1 3.5 6.7.9 6.3 3 10.2 6.1 11.3 2 .8 2.3 1.4 1.8 3.5-.5 2 .1 3.2 2.8 5.9 6.3 6.3 16.2 7.3 24.5 2.6 5.1-2.9 6-3.8 10.8-11.3 2.6-3.9 3.3-8.1 1.5-9.2-.5-.3-1-1.4-1-2.4s-.9-3-2-4.4c-1.1-1.4-2-3.4-2-4.5s-.6-3.3-1.4-4.9c-2.7-5.4-8.7-19.5-11.7-27.6-1.7-4.5-3.4-8.6-3.8-9.2-.9-1.1-1.4-2.9-4-16.8-1-5.4-1.6-10.7-1.4-11.8.4-1.2-.3-2.6-1.8-3.8-2.3-1.8-2.3-2-.6-3.9 1-1.1 1.9-4.1 2.2-6.8.7-8.6 2.2-18.1 2.9-19.3.4-.6 0-1.4-.9-1.7-1-.4-1.4-1.3-1-2.3 1.7-4.1 5.4-20.5 4.9-21.3-.8-1.2 2.4-7.8 3.8-7.8.6 0 .8.9.5 1.9-.3 1.2.1 2.2.9 2.5 1 .4 1.4-.4 1.4-2.9 0-2.6.7-3.8 2.9-5.4 2.1-1.5 3.1-3.3 3.6-6.2.4-2.2 1.7-5.9 3-8.2 1.3-2.3 2.7-5.9 3-8 .4-2.2 1.3-3.7 2.1-3.7s1.4-.6 1.4-1.4c0-.8 1.5-3.2 3.4-5.2 1.9-2.1 3.2-4.3 2.9-5-.2-.6.1-1.5.8-2 .9-.5 1-.2.6.9-.8 2.1 1.2 3.4 2.4 1.6.4-.7 1.1-1.1 1.4-.7.4.3-.7 1.6-2.4 2.9-1.7 1.2-2.8 2.6-2.5 3.1.3.5-.3 1.2-1.5 1.5-2.4.6-2.6 1.4-.9 3.1.8.8.8 1.5-.2 2.6-.7.9-1.6 1.4-2 1.1-1.2-.7-2.3 1.4-2.7 4.8-.2 2.3 0 2.8 1.2 2.3.9-.3 1.5 0 1.5.9 0 .8-.6 1.5-1.4 1.5-1.9 0-2.5 1.9-1.5 5.5.6 1.8.5 3.3-.1 3.9-1.3 1.3-1.3 4.6 0 4.6 1.5 0 1.2 4-.5 5.6-1.2 1.2-1.4 3.8-1 13.7.3 6.8.9 12.3 1.5 12.5.6.2.6 1 .1 2-1.4 2.9-1.1 8.1.6 9.1 1.9 1 1 2.9-2.1 4.1-1.7.7-1.7.9-.3.9 1.8.1 2.5 2.1.7 2.1-.5 0-1 .5-1 1.1 0 .5.5.7 1 .4 1.9-1.2 2.3 2.8.6 5.8-1.3 2.3-1.4 3.3-.5 4.3.9 1.1.9 2.1.1 3.9-.9 1.9-.8 2.6.3 3.2 1.3.7 1.2 1.2-.1 3.8-1 1.9-1.1 3.1-.5 3.3.6.2 1.1 1 1.1 1.8s.6 2.3 1.2 3.4c1 1.6 1 2.4.1 4-1.4 2.1-.3 3.3 2.1 2.4 2-.8 2.1 1.7.2 5.4-.7 1.5-1.7 3.8-2.1 5.1-.6 2.1-.5 2.3 1.4 1.8 2.5-.6 2.9 1.4.6 3.3-1.9 1.6-3.7 8.2-2.6 9.3.5.5 1.4 0 2-1.2 1.4-2.5 2.7-2.7 3.5-.4.7 1.8-3.1 5.6-4.6 4.7-.4-.3-.5.2-.2 1 .4 1.1 0 1.6-1 1.6-.9 0-1.6.4-1.6 1 0 .5-.6 1-1.3 1-1.8 0-1.7 14.8.1 15.9.7.4 1 1.4.7 2.3-.3.8.4 3.7 1.5 6.4 4.3 9.9 4.7 11 5.9 14.8.7 2.1 2.2 4.7 3.2 5.7s1.9 2.8 1.9 3.9.4 2 .8 2c1.1 0 3.6 5.1 3.3 6.4-.1.6.2 1.9.7 3 .6 1.2 1.8 4.2 2.9 6.9 1.1 2.8 2.3 4.5 3 4.2 1.9-.7 2.5 1.2.9 2.8-1.2 1.2-1.2 1.6.6 3.1 1 .9 2.4 3 3 4.6.5 1.7 1.3 3 1.7 3 .4 0 .7 1.6.8 3.4.1 1.9.8 4.9 1.7 6.7.9 1.8 1.6 3.7 1.6 4.3 0 .6.9 2.2 2 3.6s2 3.1 2 3.9c0 .8 1.1 2.9 2.4 4.6l2.5 3.2-2.4 1.3c-2.8 1.5-4.5.6-4.5-2.4 0-2.2-1.7-4.6-3.2-4.6-1 0 .1 5.1 1.3 6.5.5.5.9 1.7.9 2.7 0 1.9 3.6 2.6 4.2.8.2-.6.8-.6 1.8.1 1.3.8 1.2 1.2-.7 2.6-2.8 1.9-2.9 4.6-.4 8.7 1 1.7 2.4 4.7 3 6.8.7 2 1.8 3.9 2.6 4.2.8.3 1.5 1.4 1.5 2.4s1.1 3.3 2.5 5.2c2.5 3.4 3.2 6 1.6 6-.5 0-1.6-1.1-2.5-2.5-.9-1.4-2.3-2.5-3-2.5-.8 0-1.8-1.5-2.1-3.2-.4-1.8-1.6-4.5-2.6-6-1.1-1.4-1.9-3-1.9-3.6 0-.5-.7-1.5-1.5-2.2-.8-.7-1.5-2.1-1.5-3.1 0-1.1-.4-1.9-.9-1.9s-.7 3.3-.4 7.3c.3 3.9 0 13.5-.6 21.2-1.3 15.2-1.8 50.7-.9 59.5.3 3 1.1 8 1.8 11 .6 3 1.4 10.4 1.7 16.3l.5 10.8-2.6-.7c-3.9-1-4.1 1.3-.6 9.7 5 11.8 6.9 15.5 12.2 23.7 19.2 29.4 44.3 51.8 87.3 77.7 7.2 4.3 20.1 12.3 28.7 17.7 18 11.2 20.5 12.4 20.5 10 0-1.8-3.3-5.2-5.1-5.2-.6-.1 0-.7 1.3-1.4 2.6-1.4 11.8-.3 13.6 1.6.7.8.6.8-.4.3-.9-.5-1.2-.4-.8.2.8 1.3 4.7 2.4 4.7 1.4 0-.4.7-.8 1.5-.8 1.1 0 1.2.4.3 1.4-.8 1-.7 1.2.4.8 1-.4 1.7.1 2 1.2.6 2.4 4.8 2.7 6.4.5.9-1.2 1.3-1.3 1.4-.4 0 .7.5 1 1.1.6.6-.3 2.2-.1 3.5.7 3.1 1.6 4.2.5 1.9-2.1-1-1.1-1.5-2.3-1.2-2.7.4-.3.7 0 .7.8 0 1.1.2 1.1.9.1.7-1.1 1-1.1 2.2 0 1.6 1.5 3.2 1.8 10.4 2.1 2.8.1 6.4 1 8.2 1.9 1.8.9 3.3 1.3 3.5.9.6-1.2 7.7-4.3 8.6-3.7.6.4 1.4.1 1.8-.5.4-.8.3-.9-.4-.5-2 1.2-1.3-2.2.8-4.2 2.3-2.1 1.7-5.7-.7-4.8-.8.3-1.1.1-.8-.4.3-.6.2-1-.4-1-.5 0-1.2-1.4-1.6-3-.4-1.7-1.8-3.8-3.1-4.6-1.3-.9-2.4-2.4-2.4-3.4s-.7-2.3-1.5-3c-.8-.7-1.5-2.2-1.5-3.3 0-2.9-5-12.7-7.2-14-1.4-.9-1.8-2.4-1.8-6.4 0-2.8-.4-5.5-1-5.8-1.4-.8-1.3-2.1.3-3.7.7-.7 1.4-1.7 1.5-2.3 0-.5 1.5-1.3 3.2-1.8 2.8-.7 5.1-2.1 8.5-5.5.8-.6 1.8-1.2 2.4-1.2 1.1 0 5.1-2 6.1-3 1.2-1.2 5.1-3 6.6-3 1 0 1.4-.5 1.1-1.5-.4-.8-.2-1.7.3-2 .6-.4 1 0 1 .8 0 1.2.4 1.3 2.4.4 1.3-.7 2.2-1.5 2-1.9-.3-.5.7-1.3 2.1-1.8 1.4-.5 2.4-1.4 2.1-1.9-.4-.5 0-1.2.6-1.5 1-.5 1-.7.1-1.2-1.8-.8-1.6-2.7.1-2.1 1 .4 1.3.1 1-.8-.4-.8.3-1.5 1.7-1.7 1.3-.2 2.9-1.3 3.5-2.5.6-1.3 1.5-2 2-1.5.4.4.2-.1-.5-1.1-1.7-2.2-.9-2.9 4.5-4.6 2.4-.8 4.8-2.4 6-4.2 1-1.6 2.7-3.2 3.7-3.5.9-.3 1.7-1 1.7-1.5 0-.6.5-.7 1.2-.3.6.4.8.3.5-.3-.4-.6.7-2.5 2.3-4.3 1.6-1.8 2.7-3.7 2.3-4.4-.4-.6.2-.4 1.2.4s1.6 1 1.2.4c-.3-.6.1-2.1.9-3.3 1.3-1.7 1.9-2 3-1 .8.6 1.5.8 1.5.3.1-.5.2-1.4.3-1.9 0-.6 1.9-2.9 4.1-5.3 11.4-12.1 13.5-14.6 13.5-15.9 0-.7.4-1.3 1-1.3.5 0 .7-.6.4-1.4-.3-.8.9-2.2 3-3.5 2.1-1.4 3.9-3.5 4.6-5.6.6-1.8 1.4-3.5 1.8-3.7 1-.4 12.1-13.5 15.7-18.3 1.6-2.2 4.4-5.6 6.1-7.5 3.5-3.8 10.4-12.2 14.4-17.4 16.4-21.5 25.4-34.4 29.4-42.4 1.5-3 4.7-8.5 7.2-12.4 4-6.2 6.6-11.4 10.9-21.3 2.1-4.9 2.6-6.8 3.1-11.3.4-3.9.3-4.2-1.1-2.9-.8.9-1.5 2.9-1.5 4.5 0 3.6-3.8 7.5-6 6.2-1.1-.7-1.1-1-.2-1 .7 0 1-.4.7-1-.3-.5-1.7-1-3.1-1-2.1 0-2.4.3-1.9 2.1.5 1.4 0 2.7-1.4 4-2.2 2.1-2.7 4.4-1.1 5.4 1.1.7.2 3.5-1.2 3.5-.5 0-.6-.9-.3-2 .4-1.1.2-2-.4-2-1.4 0-3.1 3.3-3.2 6.2 0 1.3-.3 1.7-.6 1-1.1-2.7-5.2.3-5.3 4 0 2.2-3.7 6.1-5 5.3-.5-.3-1.2 1.1-1.6 3.2-.4 2.1-1.6 5.1-2.7 6.8-1.1 1.6-1.4 2.4-.7 1.7.8-.6 1.9-1.2 2.6-1.2 1.7 0 2.7 3.1 1.4 4.4-.5.5-1 1.9-1 3-.1 2.2-2.2 5.6-3.4 5.6-.4 0-.4-.4-.1-1 .3-.6-.1-.7-.9-.4-1.9.7-2.1 2.5-.4 4.2.9.9.9 1.5 0 2.4-.9.9-1.3.7-1.8-.6-.5-1.4-.9-1.5-1.5-.4-1.3 2-1.1 3.8.6 3.8.8 0 1.5.7 1.5 1.5 0 1.7-.4 1.8-4.6.6-2.8-.8-3.3-.6-4.3 1.7-1.1 2.3-1 2.4.4 1.2 1.9-1.6 2.8-.9 1.9 1.4-.4 1.1-1.4 1.6-2.5 1.3-2.1-.6-3.5.8-2 1.8.6.3.3 1.3-.7 2.4-3.5 3.7-6.7 8.2-6.5 9.1.2.5-.8 1.2-2.1 1.6-2.7.6-6.3 4.1-5.3 5 1 1-1.4 6.4-2.9 6.4-.8 0-1.4.5-1.4 1 0 .7-.7.7-2.1 0-2.8-1.5-3.8-.4-1.3 1.5 1.7 1.3 1.7 1.4.2 1.5-1 0-1.8.5-1.8 1.1 0 .7-1.1.9-3 .6-2.9-.6-2.9-.6-2.4 3.3.5 3.2.3 4-1 4-.8 0-1.9.7-2.4 1.6-.8 1.5-1 1.5-1.5 0-.4-.9-1.6-1.6-2.8-1.6-1.8 0-1.9.2-.9 1.5 1 1.2.9 1.6-.4 2.1-.9.3-1.3 1-1 1.5 1 1.6-.7 6.9-2.2 6.9-.8 0-1.8.8-2.1 1.7-1.1 2.7-4.5 5.2-7.3 5.3-1.5 0-3.7 1.3-5.5 3.2-1.7 1.8-3.9 3.3-5 3.3s-2.5 1.1-3.1 2.3c-.6 1.3-2.3 3-3.8 3.7-2.6 1.4-2.6 1.3-2.6-2.3-.1-3-.2-3.4-1.1-1.9-.6.9-1.4 1.5-1.8 1.2-.5-.2-1.2.5-1.5 1.8l-.7 2.2-1.1-2.5c-.6-1.5-1.2-2-1.5-1.3-.6 1.6-3.3 1.7-3.3.2 0-.5-.4-.7-1-.4-.5.3-1 .2-1-.3s-.7-.9-1.5-.9c-1 0-1.3.6-1 1.8.4 1.1-.1 2.2-1.4 2.8-2.7 1.5-4.1 1.4-4.1-.4 0-2.1-2-1.9-2.1.2 0 1-.6.4-1.2-1.4-1.8-4.8-3.1-5.8-5.1-3.8-.9.9-1.5 2.4-1.5 3.3.1 1.5.2 1.5.6 0 .5-1.9 1.8-2.4 2.7-1 1 1.6-1.1 3.4-3.3 2.7-1.5-.5-2.1-.2-2.1.9 0 1.8-1.3 2-4 .6-1.2-.6-2.1-.7-2.5-.1-.3.6-2 .8-3.7.6-1.8-.2-3.8.1-4.4.6-.9.8-1.6.5-2.6-1-.7-1.2-1.8-2.1-2.5-2.1s-1.3-.7-1.3-1.5-.5-1.5-1.1-1.5c-.7 0-.9-.9-.6-2.1.4-1.6.2-1.9-1.1-1.4-3.3 1.4-4.7 1-4.5-1 .1-1.1 0-1.4-.3-.8-.7 1.6-4 1.7-4.9.2-.4-.5-.8-2.1-1-3.5-.3-3.3-.9-3.8-4.2-3-2.2.6-2.4.9-1.2 1.8 1 .7.8.8-1.1.3-1.4-.3-3-.7-3.6-.7-.6-.1-.9-1-.6-2 .5-2-1-2.3-3.9-.8-1.6.9-1.9.7-1.9-1.2-.1-2.1-.2-2.2-1.4-.5-1.5 2-4.6 1.3-4.6-1.1 0-1.3-.3-1.2-2 .3-1.8 1.6-2 1.6-2 .2 0-1-.5-1.7-1.1-1.7-.5 0-.7.4-.4 1 .8 1.3-.1 1.3-2.6 0-1.4-.8-1.9-2.1-1.9-5 0-2.2-.4-4-1-4-.5 0-.7-.7-.4-1.5.4-1 .2-1.3-.8-1-.8.3-2.4-.6-3.6-2-1.2-1.4-2.7-2.5-3.2-2.5-.7 0-.7-.6 0-2 .6-1.1 1.7-2 2.5-2s1.5-.5 1.5-1.1c0-.5.5-.7 1-.4.6.3 1-.3 1-1.4 0-1.2-.5-2.1-1.1-2.1-.8 0-.8-.4.1-1.4.8-1.1 1.8-1.2 3.6-.6 3.2 1.2 3.1-.1-.2-3.7-2-2.2-2.3-2.9-1.1-3.1 2.4-.5 3-3.2.7-3.2-1.3 0-1.8-.5-1.4-1.5.5-1.1.2-1.3-1-.9-1.2.5-1.6 0-1.6-2 0-1.7-.5-2.6-1.6-2.6-3.2 0-.8-3.4 3.6-4.9 2.5-.9 4.7-1.9 4.8-2.4.2-.4 1.2-.7 2.2-.7.9 0 3.4-.7 5.4-1.5 2-.9 4.7-1.3 6-.9 1.4.3 3.3.1 4.3-.5 1.3-.8 1.4-1.1.3-1-2.9.3-4.1-.1-3.5-1.2.4-.6 1.9-.7 3.8-.3 1.8.4 3.8.6 4.5.6.6-.1 2.3-.2 3.7-.3 2.6-.2 4.2-2.9 2.9-5.1-.5-1-.4-1 .6-.1 1 1 1.9.9 4.2-.5 1.5-.9 2.8-2 2.8-2.5 0-.4.4-.6.9-.3 1.2.8 2.2-2 1.5-4.2-.5-1.4-.3-1.4 1 .2 1.5 1.8 1.6 1.8 1.6.2 0-1.1.6-1.6 1.8-1.4 1 .2 1.6 1.1 1.4 2.3-.2 1.3 0 1.6.5.8.5-.6 1.7-1.1 2.8-1 1.2.1 2.4-.7 3-2 .5-1.3 1.3-2.3 1.8-2.3.4 0 .6-.4.3-.9s-4.1-.7-8.3-.5c-5.1.2-7.2 0-6.3-.6.8-.5 3.4-1 5.7-1 2.3 0 4.3-.4 4.5-1 .2-.5 1.7-1.2 3.3-1.4 3.9-.5 6.5-1.6 6.5-2.7 0-.5.7-.9 1.7-.9.9 0 1.4-.2 1.1-.5-.5-.6-20.3 2-26.2 3.4-2.1.5-4.3 1.6-4.7 2.3-.6.9-.9.9-.9.1 0-1.3-2.6-1.9-13.3-2.8-5.6-.6-7-1-7.6-2.7-.7-1.9-.8-1.9-2.4-.3-1.2 1.2-1.7 1.3-1.7.3 0-.9-.3-.9-.8-.2-.9 1.4-4.2 1.4-4.3 0-.1-.6-.2-1.8-.3-2.6-.2-.8-.3-2.3-.4-3.3-.1-1-.6-1.6-1.1-1.2-.6.3-1.4-.3-2-1.2-.6-1-1.1-1.4-1.1-.9 0 .4-1.9-1-4.1-3.3-2.3-2.2-4.6-4.1-5.2-4.1-.5 0-2.1-1.2-3.4-2.6-1.9-2-2.3-3.3-1.8-5.5.4-1.9 1.1-2.7 1.8-2.2 1.6 1 7.9.4 9.5-.9.6-.6 1.2-.8 1.2-.5 0 .3 2.2-.1 5-.8 4.4-1.1 9-1.2 14.2-.1 1.8.4 11.5-1.2 23.3-3.8 3.9-.9 11.3-2 16.5-2.6 12.8-1.3 20-3 22.9-5.2 2.5-1.9 5.1-2.4 5.1-.9 0 .5-1 1.2-2.2 1.5-1.3.3.2.3 3.2.1 7.1-.5 30.8-8.4 36.1-12 3.5-2.5 4.9-2.9 10.2-2.7 7.5.2 9.4-.7 7.8-3.6-1.9-3.5-8.6-3.9-15.7-.9-3.2 1.4-7.7 2.8-9.9 3.1-3.8.6-12.5 4.3-12.5 5.2 0 .3.4.3.8 0 .4-.2 1.4-.1 2.1.4 1 .5.4 1-1.8 1.5s-3.1 1.1-2.7 2.1c.5 1.3.1 1.5-4.5 1.8-.9.1-2.2.6-3 1.2-2.3 1.9-6.7 2.5-7.2 1.1-.3-.9-2.1-.7-7.3 1-5.8 1.8-17.4 4.4-19.3 4.3-.3-.1.5-1 1.9-2.2 2-1.7 2.1-2 .5-1.3-7.9 3.3-15.1 5.2-15.7 4.1-.5-.7-.8-.6-.8.4 0 1.1-.3 1.2-.8.3-.6-.9-1.9-.6-5.2.9-5.4 2.5-14 2.7-19 .4-3.2-1.5-3.3-1.6-.7-1.2 1.8.2 2.7-.1 2.7-1 0-.8.8-1.4 1.8-1.5.9 0 .4-.5-1.3-1-1.6-.5-3.8-.7-4.7-.5-1 .2-1.8 0-1.8-.5s1.1-.9 2.5-.9c1.6 0 2.5-.6 2.5-1.5s-.9-1.5-2.5-1.5c-1.4 0-2.5-.5-2.5-1 0-.6-1.1-1-2.5-1s-2.5-.6-2.5-1.3c0-.8-.3-.7-1 .3-.8 1.2-1 1.2-1.6-.3-.3-.9-1.2-1.7-1.9-1.7-.6 0-2-.9-3-2-1.3-1.4-1.4-2-.5-2 .8 0 2.4-1 3.6-2.1 1.3-1.2 3.4-2.3 4.7-2.4 1.4-.2 3.4-.8 4.5-1.4 1.1-.6 3.3-1.1 4.7-1.1 1.4 0 3.6-.5 4.8-1.2 2.2-1.2 5.2-1.8 9.9-2.1 2.1-.2 3.2-1.1 4.8-4.2 2.4-4.8 2.5-5.7.3-5.3-2.6.5-2.2-4.1.7-8.2 4.7-6.6 6-7.7 9-7.5 1.7.1 3-.1 3-.5 0-1.1 6.2-3.5 7.8-3.2 1.8.4 11.2-3 11.2-4 0-.4.9-.8 2-.8s1.9-.3 1.8-.8c-.1-.4.6-2.4 1.5-4.6.9-2.1 1.7-4.6 1.6-5.5 0-1.4-.1-1.4-.7-.1-.7 1.5-4.4 2.1-5.6.9-1.7-1.7-14.9 1.8-20.6 5.3-1.9 1.2-3.9 2.2-4.3 2.3-.4 0-1.2.7-1.7 1.5s-1.4 1.5-1.9 1.5c-.6 0-2 1.4-3.3 3-2.2 2.9-5.9 4.4-5.5 2.2.1-.7-1.5-1.1-3.8-1.2-2.2 0-4.2-.3-4.5-.7-.3-.4-3-1-6-1.4-3-.3-5.9-.9-6.5-1.3-1-.6-1.6-.7-3.5-1-.5 0-1-.6-1-1.2 0-1.6-2.4-3.6-3.7-3.2-.7.3-2.3-.6-3.5-1.8-1.3-1.2-1.8-1.9-1.1-1.5.8.4.8 0 0-1.9-.7-1.4-1.7-2.5-2.3-2.5-.7 0-1.5-.7-1.8-1.6-.3-.8-1.1-1.2-1.7-.8-.7.4-.9.3-.5-.4.3-.6.2-1.3-.4-1.7-.6-.4-.8-1.1-.5-1.6.4-.5 0-.9-.8-.9-1.1 0-1.3-.7-.9-2.3.5-2 .4-2.1-1.4-.7-1.8 1.4-1.8 1.4-.2-.6 1.6-1.8 1.6-2.2.2-3.5-1-1.1-1.5-3.7-1.6-8.2-.1-3.6-.5-6.4-1-6.1-1.5 1-.8-.9.9-2.1 2.2-1.7.8-3.8-1.7-2.5-1.8 1-1.8.9-.4-2.7 1-2.2 1.4-5.2 1.1-7.5-.3-2.1-.1-4.1.5-4.4.5-.3.7-1.3.4-2.1-.3-.8-.1-1.1.4-.8.6.3 1 .1 1-.4 0-.6-.5-1.1-1.1-1.1-.6 0-.9-.9-.6-2 .3-1 0-2.1-.7-2.4-.6-.3 0-.5 1.4-.4 2.5.2 3-.2 3-2.3 0-.8-.5-.8-1.5.1-1.9 1.6-1.9.1 0-2.4 1.1-1.5 1.2-2.3.3-3.3-.9-1.1-.7-1.2.7-.6 1.5.5 1.7.3 1.2-1.2-.4-.9-.3-2.3.1-2.9 1.3-1.7 2.3-4.8 1.3-4.2-.4.3-1.3-.6-1.9-2-1-2-.9-2.6.4-3.1s1.4-1.6.9-6.7c-.4-3.3-1-6.6-1.5-7.1-.4-.6-.6-2.7-.4-4.8.2-2 0-3.7-.4-3.7s-.7-1-.8-2.3c0-1.2-.4-5.8-.8-10.2-1.1-11.9-1.2-22.5-.2-22.5.8 0 .5-3.9-.7-8.6-.3-1.1-.2-2.7.3-3.4.5-.8.1-1.9-1.1-2.9-1.2-1.1-2.1-3.5-2.4-7.1-.4-3-1.1-5.9-1.6-6.5-1.3-1.3-1.2-5.8.2-4.9.8.4.8 0 0-1.5-.7-1.1-2-2.1-3-2.1s-3.9-1.8-6.4-4c-3-2.7-5.1-3.8-6.4-3.4-1.2.3-1 .1.5-.8 2.1-1.3 2.1-1.4-2-1.5-6.9-.2-7.8-.4-7.8-1.4 0-2.1 2.1-4.9 3.7-4.9.9 0 1.4-.3 1-.6-.3-.4-2.4.1-4.7 1-4.4 1.7-4.8 1.1-2.5-3.4.9-1.7 1.1-3 .5-3-.5 0-1 .5-1 1.1 0 .5-.4.7-1 .4-.5-.3-.7 0-.4.9.3.8-.3 1.9-1.4 2.5-2.5 1.4-3.3.5-2.1-2.6 1.2-3.1 1.1-4.2-.1-2.3-.8 1.3-1 1.2-1-.3 0-1 1.1-2.2 2.5-2.7 3-1.1 3.2-1.7.7-1.5-2.4.1-7.5 4.1-6.9 5.2.3.5-.3.9-1.3.9-1.1 0-1.7-.2-1.5-.4.2-.3-.3-1.1-1.1-1.9-.8-.8-1.2-1.8-1-2.2.2-.3-.4-1.8-1.5-3.1l-2-2.5.6 3.2c.4 1.8.3 3.3-.2 3.3-1.8 0-5.3-3.2-4.7-4.2.5-.7.2-.8-.6-.3-.7.4-1.5.3-1.9-.1-1.3-1.9-9.1-7.5-9.1-6.6 0 .6 1.7 2.4 3.7 4.2 2.3 2.1 2.9 3 1.7 2.7-1-.3-3.4-.9-5.3-1.2-2.5-.6-3-1-2-1.7s.6-.8-1.3-.4c-1.7.4-2.8.2-2.8-.4 0-.7-2.9-.8-8.5-.4-8.5.7-12.4-.3-10.8-2.9.4-.7-1-.8-4.3-.3-2.7.4-6.5.9-8.5 1.1-2 .3-4.1.5-4.5.6-.5.1-2 .1-3.4 0l-2.5-.1 3-2.1c2.9-2 2.9-2.1.5-1.5-1.4.3-3.2.1-4-.4-.8-.5-1.9-.5-2.5-.1-.5.5-2.3 1.1-4 1.5-2.8.6-2.9.5-1.1-.9 2.7-2.1-.2-2-3.2.1-2 1.4-2.6 1.2-2.3-.9.1-.4-1.3 0-3.1.9l-3.3 1.7 2.5-2.8c2.1-2.3 2.2-2.6.5-1.7-1.1.5-3.1 1.5-4.5 2.1-1.4.6-3.6 1.8-5 2.7-1.8 1.2-1.6.8.8-1.5 3.8-3.7 3.9-3.8 1-3.6-1.3.1-3.1-.4-4-1.3-1.5-1.2-2.2-1.3-4.8-.2-1.7.7-3.4 1-3.7.6-.4-.3-1.8.4-3.1 1.6-1.6 1.5-2.6 1.9-2.9 1.1-.2-.7-1.2-.9-2.1-.6-1.4.5-1.5.4-.4-.8.7-.8 1.7-1.5 2.2-1.5.6-.1 1.5-.2 2-.3.6 0 1-.7 1-1.5s.6-1.6 1.3-1.9c.6-.2.9-.7.6-1.1-.3-.3-1.7.3-3.2 1.4-1.4 1.1-2.8 2-3.1 2-1.3 0-.5-3.8.9-5 1.2-1 1.3-1.5.4-2.1-1-.6-1-1.3-.2-3.1.7-1.6.8-3 .1-4.1-.5-1-.6-2.2-.3-2.7.3-.6-.1-1.3-.9-1.6-1.4-.5-1.4-.9-.1-2.6 1.2-1.8 1.2-2.4-.3-4.6-1.8-2.8-2.1-3.9-2.6-9.5-.3-2.3 0-3.7.8-3.7.6 0 .3-.5-.7-1.1-.9-.6-1.5-1.4-1.2-1.9.3-.5-.1-2-.9-3.2-.8-1.3-1.7-3.4-2-4.8-2.1-9.5-2.8-13-3.2-16.5-.3-2.2-.8-4.2-1.2-4.5-.4-.3-.8-1.4-.9-2.5-.2-3-.8-4.8-1.8-6.5-.5-.8-.8-2.3-.7-3.3.2-.9 0-1.7-.5-1.7-.4 0-.7-4.5-.5-10.1.2-7.7 0-9.9-.9-9.3-.8.5-.9.3-.4-.7.5-.7 1-2.2 1-3.3.1-1 1-2.5 2-3.2 1.3-1 1.4-1.4.5-1.4-.9 0-.6-.8.8-2.3 1.2-1.3 2.2-3.1 2.2-4 0-1.8 4.2-3.3 5.9-2.2.6.3 1.1.1 1.1-.5 0-.7.5-1 1.2-.8.7.3 2.2-.6 3.4-1.9 1.2-1.3 2.6-2.3 3.3-2.3.6 0 2.3-1.4 3.8-3 1.5-1.7 3.3-2.8 4-2.6.7.3 1.3.1 1.3-.5 0-.5 1.2-1.5 2.8-2.2 1.5-.6 3.2-1.9 3.9-2.7.6-.8 1.5-1.2 1.9-.8.3.4 1.8-.2 3.2-1.2 1.3-1.1 3.3-2 4.3-2s2-.4 2.4-1c.3-.5 3.3-1.7 6.6-2.6 3.3-.9 6.2-2.1 6.5-2.5.3-.5-.3-.6-1.3-.3-1.6.5-1.6.4.1-.6 1.5-1 2-.9 2.7.1.6 1 .9 1.1.9.1 0-.6.8-1.2 1.8-1.2s2.3-.5 2.9-1.1c.6-.6 3.1-1 5.6-.8 2.5.2 4.3.2 4.1 0-.3-.3 1.7-1.1 4.3-1.8 2.6-.8 6.6-1.9 8.8-2.5 2.2-.6 4.2-1.4 4.5-1.8.3-.4 2.8-1.5 5.5-2.5 2.8-1 6.8-2.6 9-3.6s5.5-2.1 7.3-2.4c1.9-.3 4.3-1.2 5.6-2 1.2-.8 3.1-1.6 4.1-1.7 1.1-.2 3.1-1.1 4.5-2.1 1.3-.9 3.2-1.7 4.1-1.7.9 0 2.2-.7 2.9-1.5 1-1.2.9-1.5-.6-1.6-1.1 0 .1-.8 2.6-1.8s4.4-2.2 4.3-2.7c-.1-.6 1-2.3 2.3-4l2.6-2.9-2.1 3.1c-2.2 3.3-1.9 4.6.7 3.7 1.3-.3 1.3-.1-.2 1.1-1.8 1.5-1.8 1.6-.2 1.6 1 0 2-.9 2.3-2.1.3-1.1.9-1.6 1.2-1.1.7 1.1 7.1.4 7.1-.8 0-.5-.8-1.1-1.7-1.3-1.1-.3-.7-.5 1-.6 1.5 0 2.7-.6 2.7-1.1 0-.6.9-1 2-1 1.2 0 3.3-1.1 4.8-2.5 1.6-1.6 3.5-2.4 4.8-2.2 1.6.3 2-.1 1.7-1.3-.4-1.4 0-1.7 2.1-1.3 1.8.4 2.6.1 2.7-.8 0-.8.4-.5.9.6.7 1.7.9 1.7.9.3.1-1.2.6-1.5 1.8-1.1 1.1.4 1.4.3.9-.5-.5-.8-.2-1 .8-.6s1.6.1 1.6-.9c0-.8 1.3-1.7 2.9-2 1.6-.3 3.1-1.3 3.5-2.2.4-1.3.1-1.5-1.3-1-1.1.3-2.2.1-2.6-.5-.9-1.4-.7-1.6 2.5-2.4 1.9-.6 2.1-.5 1 .3-.8.6-1 1.1-.5 1.2 4 .6 5.5.5 5.5-.2 0-1.4 6-1 6 .3.1.7 1 .2 2.1-1.1 1.6-1.9 2.2-2.2 2.8-1.2.7 1.1 1 1.1 1.4 0 .4-1 .6-.9.6.3.1 1.8 2.1 2.6 2.1.8 0-1.5 7.2-4.2 10.3-3.7 1.5.2 2.7 0 2.7-.5 0-1.2 3.8-1 4.5.2.4.6 1.1.8 1.6.5.5-.4.9-.1.9.6 0 .8.4.8 1.3.1.8-.7 2.6-.6 5.6.5 2.5.8 6.2 1.3 8.2 1 2-.3 4.2 0 4.7.5.7.7 2 .7 3.9.1 2.9-1 10.3-.6 10.3.6 0 .6 2.9.6 13.5.1 2.8-.1 5.5-.1 6 0 .6.2 1.8 0 2.8-.5 1.1-.4 2.8-.2 4.3.6 1.4.7 4.3 1.3 6.6 1.3 2.4.1 4.3.6 4.6 1.3.2.7 1 1.3 1.8 1.3s1.1-.6.8-1.5c-.7-1.8 1.4-2 5.3-.3 1.5.6 3.4 1 4.1.9.8-.1 2 .3 2.8 1 .8.6 1.7.9 2.1.6.3-.4 1.4-.2 2.4.3 1.2.7 2 .7 2.4 0 1.1-1.8 4.7-1.1 5.2 1 .7 2.5.8 2.5 4.3 0l2.9-2.1 1.6 2.5c.9 1.4 3.2 3.4 5 4.4 3 1.9 3.4 1.9 5 .3 1.3-1.2 1.9-1.3 2.2-.3.3.6.9 1 1.4.7 1.1-.7 6.4 2.9 10.4 7.1 1.7 1.7 4.8 7.1 6.9 12 2.2 4.9 5.2 10.5 6.6 12.4 1.5 1.9 3.3 4.6 4 6 .7 1.4 3 4.7 5 7.5 2.1 2.7 6.6 10.4 9.9 16.9 3.4 6.5 6.5 12.4 7 13 .5.6 1.1 3 1.4 5.3.4 2.2 2 7 3.7 10.6 1.6 3.5 3 7.2 3 8.1 0 .9.8 3.3 1.9 5.4 1.2 2.3 1.8 5.2 1.6 7.8-.2 2.4.4 5.8 1.6 8.3 2.3 5.2 2.4 6.2.4 5.4-1.4-.5-1.3-.1.1 3.1 1.7 3.5 1.7 3.7-.1 5-1.5 1.1-1.9 2.4-1.6 5.3.1 2.1.6 4.2 1 4.8.4.5.8 3.5.9 6.5.1 3 .7 10.4 1.3 16.5 1.1 10.8 2.6 15.7 10.5 33.2 2.6 5.9 5.2 15.8 6.8 26.8 1 6 2.5 15.3 3.6 20.5 1 5.2 2.6 13.5 3.5 18.5.9 4.9 2.3 11.2 3 14 .8 2.7 1.7 6.3 2 7.8.4 2 1 2.7 2.1 2.3.8-.3 3.2.2 5.4 1 4.4 1.8 9 1.2 9-1.1 0-.8.4-1.5.8-1.5.9 0 3.2-5.9 3.2-8.1-.1-.8-2.3-3.2-5-5.4-5.3-4.3-5.9-5.5-3.5-7.5.8-.7 1.5-2.1 1.5-3.2 0-2.1 2-6.6 5.1-11.8 1.2-1.9 2.5-4.9 3-6.5.4-1.7 1.7-5.7 2.9-9 3.4-9.6 6-19.7 6-23.9 0-2.8.7-4.5 2.5-6.2 1.5-1.4 2.5-3.4 2.5-5.1.1-1.5.3-5.5.5-8.8 1.5-20 .4-58.5-1.7-61.2-.5-.7-.7-2.2-.3-3.3.4-1.2 0-3.6-1-5.6-.9-1.9-2-5.9-2.5-8.9s-1.3-6.3-1.9-7.3c-.6-1.1-1.5-4.1-2.1-6.7-.6-2.6-1.9-6-2.9-7.4-1-1.4-2.8-5.3-4-8.6-1.2-3.3-4.9-11.2-8.1-17.6-3.3-6.4-6-12.2-6-12.9 0-.7-1.6-5.2-3.6-9.9-1.9-4.7-4.3-10.4-5.2-12.6-.9-2.2-2.9-6.1-4.5-8.8-1.6-2.6-3.1-6.1-3.4-7.8-.5-3.5-8.8-21.5-10.4-22.4-2.4-1.6-9-11.7-8.5-13.3.8-2.5-2.1-5.5-9.5-9.5-6.7-3.7-20.2-16-21.3-19.5-.4-1-2.1-3.4-3.9-5.3-1.9-1.9-3.9-5.4-4.6-7.9-1.3-4.5-5.1-9.5-5.1-6.7 0 .7-.6 2.2-1.4 3.3-1.4 1.9-1.5 1.9-3.9-.4-1.4-1.3-3.1-2.5-3.8-2.6-4.5-.9-11.9-5.9-11.9-8 0-.7-1.1-1.8-2.4-2.4-3-1.4-5.6-11.3-3.6-13.7 1.3-1.6.7-1.9-3.7-1.5-6.3.5-9.8-7.6-6.8-16.1 1.9-5.3 1.9-6.5-.1-7.3-1.1-.4-1.4-.1-1 1.2.7 2.1-2 8.2-3.5 8.2-1.1 0-.2-6.4 1.3-9.3 1.1-2.2.1-3.8-1.1-1.8-1.1 1.7-6.1.6-6.1-1.3 0-.8-1.7-2-3.7-2.7-2.1-.6-4.3-1.6-4.9-2-.6-.5-3-1-5.2-1.1-2.3-.1-3.9-.5-3.6-.9.2-.5-1.4-1.3-3.7-1.9-4.6-1.3-11.9-.6-13 1.1-.4.8-1.1.4-1.9-1.1l-1.2-2.3-1.7 2.6c-1.9 3.2-2.5 3.3-5 .8-1.2-1.2-2.7-1.7-4.5-1.4-1.5.3-2.7.1-2.7-.6-.3-2.6-.4-3-1.1-3.6-.4-.4-.4-1.3-.2-2 .6-1.6-.3-2.2-4.2-2.9-1.6-.3-3.3-1.1-3.9-1.8-2.1-2.7-17.7-1.6-16 1.1.3.5.1 1.2-.5 1.6-.6.4-1-.4-1-1.8 0-3.3-2.5-4.1-4.9-1.6-1.6 1.8-2.2 1.9-4 .7-1.6-1-2.3-1-3.3 0-.6.6-1.7 1.2-2.2 1.2-.6 0 .5-1.3 2.4-2.9l3.4-2.8-2.4-.8c-2.7-.9-5.4-1.4-11.3-2.2-2.7-.4-4.3 0-5.7 1.2-1.1 1-2.8 1.5-4 1.2-1.1-.3-2.3-.1-2.6.4-.3.5-1.6.9-3 .9-1.7 0-2.4.6-2.4 1.9 0 1-.7 2.4-1.5 3.1-1.3 1-1.5.9-1.5-.8 0-1.8-.3-2-3.2-1.1-4.1 1.1-4.7 1.1-2.8-.1 2.3-1.4.8-2-3.3-1-3.9.8-6.2-.5-3.6-2.1 1.1-.7 1.1-.9-.2-.9-.9 0-1.9.8-2.1 1.8-.4 1.5-1.2 1.8-3.6 1.4-1.7-.2-3.7-1.1-4.3-1.8-1-1.2-.8-1.3 1.3-.5 1.8.7 2.9.6 3.7-.2 1.9-1.9 1.2-3.7-1.5-3.7-1.5 0-2.3-.4-1.9-1 .4-.6 2.1-.8 4.1-.4 2.9.5 3.3.4 2.8-1-.5-1.3-1.4-1.6-3.8-1.1-6.2 1.2-11.6 3-11.6 3.8 0 .5-.9.5-2 .2-1.3-.4-3.1.1-4.9 1.4-1.8 1.3-3.9 1.9-5.9 1.7-2-.3-3.7.2-5.1 1.5-2.6 2.5-3.4 2.4-2.7-.4.3-1.2.3-1.6 0-.9-.4.8-1 1-1.7.4-.8-.6-2.2-.6-3.7.1-3.5 1.5-8 1.4-8-.1 0-.6-.4-1.2-1-1.2-.5 0-1 .9-1 2 0 2.1-2 2.9-2 .7 0-.6-.5-.4-1.1.6-2 3.4-2.7.7-.8-3 2.3-4.5 2.4-5.9.3-6.7-2.3-.9-2.4-.8-2.1 1.5zm97.2 6.9c-.1 1.1-.6 2.5-1.3 3.2-1.5 1.5-10.7 2.4-9.8.9.4-.6 2-1.1 3.6-1.1 2 0 3.5-.8 4.6-2.5 2-3 3.1-3.2 2.9-.5zM505 52c0 .5-.5 1-1.1 1-.5 0-.7-.5-.4-1 .3-.6.8-1 1.1-1 .2 0 .4.4.4 1zm-88.8 3.2c-2.8 2.8-3.8 1.8-1.1-1.1 1.2-1.2 2.4-2 2.7-1.6.3.3-.4 1.5-1.6 2.7zm20.7.1c-.2.1-1.3.9-2.4 1.7-1.9 1.4-1.9 1.4-.6-.3.7-.9 1.8-1.7 2.4-1.7.6 0 .8.1.6.3zm-47.7 11.9c-.8.8-.9.4-.5-1.3.4-1.3.8-1.8 1.1-1 .2.7-.1 1.8-.6 2.3zm14.5 9c-.3.8-.6.5-.6-.6-.1-1.1.2-1.7.5-1.3.3.3.4 1.2.1 1.9zm-27.7-.3c0 .5-.7 1.1-1.5 1.5-1.5.5-2-.5-.8-1.7.9-1 2.3-.9 2.3.2zm20 4.5c-.6.6-.5 1.6.1 2.7.5 1 .7 3 .3 4.4-.6 2.4-.7 2.4-2 .8-1.7-2.3-1.8-8.3-.1-8.4 1 0 1-.2 0-.6-.7-.2-1.3-1.1-1.3-1.9 0-1.1.4-1 2 .3 1.2 1.1 1.6 2.1 1 2.7zm-31.8-.2c-.7.7-1.2.8-1.2.2 0-1.4 1.2-2.6 1.9-1.9.2.3-.1 1.1-.7 1.7zm10 4c-.2 2.7-.8 4.8-1.3 4.8-1.2 0-1.1-1.6.2-6.3 1.3-4.9 1.7-4.5 1.1 1.5zm5.8-3.6c0-.6.7-.1 1.5 1 1.9 2.5 1.9 6.4.1 6.4-.8 0-1.7.6-1.9 1.2-.3.7-.6.1-.6-1.5-.1-1.5-.5-2.7-1.1-2.7-1.1 0-1.4-4.3-.3-5.3.4-.4 1-.2 1.5.5.4.7.8.9.8.4zM570 85c0 .5-.2 1-.4 1-.3 0-.8-.5-1.1-1-.3-.6-.1-1 .4-1 .6 0 1.1.4 1.1 1zm-2.6 8.6c.3.8.2 1.2-.4.9-.6-.3-1-1-1-1.6 0-1.4.7-1.1 1.4.7zm50.8 4.1c.2 1 .1 4.3-.2 7.3-.4 3-.8 4.9-.9 4.2 0-.7-.5-1-1.1-.7-1.5.9-1.2-5.8.3-7.4 1-1.1 1-1.3 0-.7-.9.5-1.3 0-1.3-1.2 0-3.3 2.5-4.5 3.2-1.5zm-325.8.9c1 2.6.7 7.6-.4 6.9-.6-.4-1 .9-1.1 3.2 0 3-.2 3.4-.9 1.8-1.7-4-1-13.5 1-13.5.4 0 1.1.7 1.4 1.6zm295.6 1.5c0 .6-.4.7-1 .4-.5-.3-1-1.1-1-1.6 0-.6.5-.7 1-.4.6.3 1 1.1 1 1.6zm6 2c0 .6-.4.7-1 .4-.5-.3-1-1.1-1-1.6 0-.6.5-.7 1-.4.6.3 1 1.1 1 1.6zm36-.5c0 .8-.4 1.2-1 .9-.5-.3-1-1-1-1.6 0-.5.5-.9 1-.9.6 0 1 .7 1 1.6zm-309.9 2.1c-1.2 2-1.4 1.4-.5-1.2.4-.9.9-1.4 1.1-1.1.3.2 0 1.3-.6 2.3zm171 9c.6 1.2.8 3 .5 4-.7 1.7-.8 1.7-2.2-.2-1.3-1.8-1.3-2 .1-2.3 1.4-.3 1.2-.8-.8-3.5-3.4-4.7-4.3-6.7-1.4-3.2 1.4 1.6 3.1 4 3.8 5.2zm133.6-2.5c-.3.8-.6.5-.6-.6-.1-1.1.2-1.7.5-1.3.3.3.4 1.2.1 1.9zm-337 3.5c-.7 2.3-1.6 4.5-2.1 5-.5.4-.5-.2-.2-1.4.4-1.2.9-3.1 1.1-4.2.2-1.2.7-2.6 1-3.2 1.3-2 1.4-.3.2 3.8zm207.4-1c1.3 1.6 1.2 1.7-.3.4-1-.7-1.8-1.5-1.8-1.7 0-.8.8-.3 2.1 1.3zm-204.4 4c-.3 1-.5.4-.5-1.2 0-1.7.2-2.4.5-1.8.2.7.2 2.1 0 3zm342.3.9c-.9 3.9-2 5.7-2 3.1 0-1.8 1.7-6.7 2.4-6.7.2 0 0 1.6-.4 3.6zm-151.5-.6c.3.5.2 1-.4 1-.5 0-1.3-.5-1.6-1-.3-.6-.2-1 .4-1 .5 0 1.3.4 1.6 1zm19.9 1.7c.3 1 .9 2.5 1.2 3.3.3.8-.4.4-1.5-.9-2.2-2.5-2.7-4.1-1.2-4.1.5 0 1.1.8 1.5 1.7zm-4.4.5c0 .6.7 1.9 1.6 2.9.9 1 1.4 2.3 1.2 3-.2.7-1.4-.4-2.6-2.5-2.5-4.2-2.6-4.6-1.2-4.6.6 0 1 .5 1 1.2zm20.9 4c2.1 3.3-1.8 1.4-4.7-2.4-1.2-1.5-1.1-1.6 1.1-.5 1.4.6 3 2 3.6 2.9zm8.3.3c.2-.3 1.3.4 2.3 1.6 1.6 1.6 1.7 2.2.6 2.9-1.3.8-2.8-.6-7.1-6.5-1.2-1.7-1-1.6 1.1.3 1.4 1.2 2.8 2 3.1 1.7zm-46.4 1c-.3.3-.9-.2-1.2-1.2-.6-1.4-.5-1.5.5-.6.7.7 1 1.5.7 1.8zm58.6-.9c.5 1.4.4 1.5-.9.4-1.7-1.4-1.9-2-.6-2 .5 0 1.2.7 1.5 1.6zm-28.4 1.5c0 .6-.4.7-1 .4-.5-.3-1-1.1-1-1.6 0-.6.5-.7 1-.4.6.3 1 1.1 1 1.6zm-248.3 2.1c-.3.7-.5.2-.5-1.2s.2-1.9.5-1.3c.2.7.2 1.9 0 2.5zm161.7-.6c.3.8.2 1.2-.4.9-.6-.3-1-1-1-1.6 0-1.4.7-1.1 1.4.7zm117.4.7c.6-.3 1.2 0 1.2.7 0 .6-.4.9-.9.6-.5-.4-1.1 0-1.4.6-.3.9-1.2.6-2.8-1l-2.4-2.3 2.5.9c1.4.5 3.1.7 3.8.5zm-54.4 5.6c-.4.4-8.4-4.7-8.4-5.4 0-.2 2 .8 4.4 2.3 2.4 1.5 4.2 2.9 4 3.1zm-4.9-.9c.3.6-.1.7-.9.4-1.8-.7-2.1-1.4-.7-1.4.6 0 1.3.4 1.6 1zm-18.4 5.7c1 1.3.6 1.2-1.7-.4-1.7-1.2-3.7-3-4.5-4-1-1.3-.6-1.2 1.7.4 1.7 1.2 3.7 3 4.5 4zm-31-3.4c-.1 1.2-1.5.9-1.9-.4-.3-.6.1-1 .8-.8.6.3 1.1.8 1.1 1.2zm24.4.7c1.6 1.7 1.6 2 .3 1.5-.9-.4-1.9-1.3-2.2-2.1-.7-1.9-.2-1.8 1.9.6zm-202.8 8.2c-.2 1.3-.4.3-.4-2.2s.2-3.5.4-2.3c.2 1.3.2 3.3 0 4.5zm10.4-3.5c-.8 1.5-1 1.5-1.1.2 0-1.7 1-3.2 1.8-2.5.2.3-.1 1.3-.7 2.3zm174.4 2.2c0 .5 1.8 2.6 4 4.6l4 3.6-5-3.7c-2.7-2-6.1-4.9-7.4-6.6l-2.3-2.9 3.3 2c1.9 1.2 3.4 2.5 3.4 3zM231 149.7c0 .5-.5 1.5-1 2.3-.8 1.2-1 1.1-1-.8 0-1.2.5-2.2 1-2.2.6 0 1 .3 1 .7zm194.7 16.9c-.3.3-1.2.4-1.9.1-.8-.3-.5-.6.6-.6 1.1-.1 1.7.2 1.3.5zM413 168c0 1.3-1.1 1.3-3 0-1.2-.8-1.1-1 .8-1 1.2 0 2.2.4 2.2 1zm5.3-.3c-.7.2-1.9.2-2.5 0-.7-.3-.2-.5 1.2-.5s1.9.2 1.3.5zm-12.3 4.8c.4-.2.7.2.7.9 0 1-.9.8-3.4-.6-1.8-1.1-3.6-2.4-3.9-2.9-.3-.5.9-.1 2.7 1 1.8 1.1 3.6 1.8 3.9 1.6zm12-2.5c0 1.3-1.1 1.3-3 0-1.2-.8-1.1-1 .8-1 1.2 0 2.2.4 2.2 1zm-25.3 8.6c-.3.3-1.2.4-1.9.1-.8-.3-.5-.6.6-.6 1.1-.1 1.7.2 1.3.5zm4.6 1.1c-.7.2-1.9.2-2.5 0-.7-.3-.2-.5 1.2-.5s1.9.2 1.3.5zm132.7.3c0 .5-.2 1-.4 1-.3 0-.8-.5-1.1-1-.3-.6-.1-1 .4-1 .6 0 1.1.4 1.1 1zm-123 1c1.9.6 1.2.8-2.6.7-2.9-.1-5-.5-4.7-1 .5-.9 4-.8 7.3.3zm5.7 1.6c-.3.3-1.2.4-1.9.1-.8-.3-.5-.6.6-.6 1.1-.1 1.7.2 1.3.5zm-24.4 6.1c-.7.2-2.1.2-3 0-1-.3-.4-.5 1.2-.5 1.7 0 2.4.2 1.8.5zm82.7.3c0 .5-.2 1-.4 1-.3 0-.8-.5-1.1-1-.3-.6-.1-1 .4-1 .6 0 1.1.4 1.1 1zm-248 1c0 .5-.4 1-1 1-.5 0-1-.5-1-1 0-.6.5-1 1-1 .6 0 1 .4 1 1zm177.5 0c1.8.8 1.8.9-.5.9-1.4 0-4.3-.4-6.5-.8l-4-.9h4.5c2.5 0 5.4.3 6.5.8zm65.8 1.5c-.3.9-.8 1.4-1 1.1-.3-.3-.2-.9.2-1.5.9-1.6 1.5-1.3.8.4zm-236.1 3.7c-.8.8-1.2.9-1.2.1 0-.6-.3-2-.6-3-.7-1.7-.6-1.7 1.2-.1 1.4 1.4 1.6 2 .6 3zm131.1-2.5c-.7.2-1.9.2-2.5 0-.7-.3-.2-.5 1.2-.5s1.9.2 1.3.5zm352.8 10c2.6 3.3 4.6 7.8 4.1 9.3-.8 2.5-2.6 3-3.7 1.1-.5-1-2-3-3.2-4.5-1.8-2.2-2.5-2.5-4.1-1.7-1.5.8-2.3.7-3.3-.5-1.9-2.3.4-4.3 3.1-2.7 1.6 1.1 2 .9 2.5-.7.8-2.5 2.7-2.6 4.6-.3zM231 205c0 .5-.5 1-1.1 1-.5 0-.7-.5-.4-1 .3-.6.8-1 1.1-1 .2 0 .4.4.4 1zm191.2 3.8c-2.3 2.1-4.8 4.4-5.6 5.2-2.7 2.1-1.8.2 1.2-2.5l2.7-2.6-3 .6c-1.9.4-1.2-.2 2-1.5 2.8-1.2 5.2-2.6 5.4-3.1.1-.6.6-.8.8-.5.3.3-1.2 2.3-3.5 4.4zm288.5 4.7c.6 1.1 1 2.2.8 2.6-.2.3 1.1 2.3 3 4.5 1.9 2.1 3.7 5.1 4 6.6.4 1.5 1.1 3 1.6 3.3.5.4.9 1.6.9 2.8-.1 2.2-.1 2.2-1.5.3-.8-1.1-1.5-2.5-1.5-3.2 0-.7-1.2-2.7-2.7-4.4-6.5-7.7-7.9-8.5-8.5-5-.6 3.7-2.3 2.6-4-2.5-2-6.2-2.1-6.8-.5-6.2.6.2 2.1.1 3.2-.3 2.8-1.1 3.8-.8 5.2 1.5zm-298 .1c-.3.3-1.2.4-1.9.1-.8-.3-.5-.6.6-.6 1.1-.1 1.7.2 1.3.5zm-4.9 1.1c-1 .2-2.6.2-3.5 0-1-.3-.2-.5 1.7-.5s2.7.2 1.8.5zm-33.3 16.8c-1.6.8-3.9 1.4-5 1.4-1.1-.1-.2-.7 2-1.4 5.2-1.7 6.8-1.7 3 0zm344.9 32.1c.3.8.2 1.2-.4.9-.6-.3-1-1-1-1.6 0-1.4.7-1.1 1.4.7zm0 16.5c2.9 5.7 3 5.9 1.6 5.9-.5 0-1-.5-1-1.1 0-.5-1.1-2.7-2.5-4.7-2.7-3.9-3.1-5.2-1.6-5.2.6 0 2.1 2.3 3.5 5.1zm3.8-.6c.6 1.4.8 2.8.5 3.2-.8.8-3.6-2.6-3.7-4.5 0-2.1 2-1.3 3.2 1.3zM710 318.6c0 2.1-.4 3.3-1 2.9-.5-.3-1-1.9-1-3.6 0-1.6.5-2.9 1-2.9.6 0 1 1.6 1 3.6zm-482.6 3.3c-1.3.9-3.4 4.9-3.4 6.3 0 .7.9.2 2-1.2 2.5-3.4 3.2-2.3 1.5 2.5-.8 2.2-1.4 5.1-1.5 6.5-.1 3.2-2.8 6.6-6 7.5-2.4.7-2.4.7-.7-1.2.9-1.1 1.7-2.6 1.7-3.4 0-1.2-.2-1.2-.9 0-.7 1.1-1 .9-1.6-.9-.6-2-.9-2.1-1.7-.7-2.2 4-4.2.6-2.7-4.7.6-2.2 2.1-4.2 4-5.3 1.6-1 2.7-2.3 2.5-3-.3-.7-.1-1.5.4-1.8.6-.4 1-.2 1 .4 0 .5 1.2-.1 2.7-1.5 1.7-1.6 2.9-2.1 3.1-1.4.3.7.1 1.5-.4 1.9zm-6.4 30.5c0 .2-.8 1-1.7 1.7-1.6 1.3-1.7 1.2-.4-.4 1.3-1.6 2.1-2.1 2.1-1.3zm98 37.6c0 .5-.5 1-1.1 1-.5 0-.7-.5-.4-1 .3-.6.8-1 1.1-1 .2 0 .4.4.4 1zm-24 2.9c-1.3 2.5-3 3.6-3 2 0-.6.8-1.8 1.8-2.5 2.3-1.8 2.4-1.7 1.2.5zm14.7 3.3c-.3.8-.6.5-.6-.6-.1-1.1.2-1.7.5-1.3.3.3.4 1.2.1 1.9zm-20.4 1.7c-.5.3-1.5 1.5-2.2 2.6-1.1 1.8-1.1 1.8-.5-.5.9-3.4 2.7-5.6 3.2-4 .3.7 0 1.5-.5 1.9zm12.8-.6c-1 .9-1.1.8-.5-.6.3-1 .9-1.5 1.2-1.2.3.3 0 1.1-.7 1.8zm2.9 1.1c0 .3-.4.8-1 1.1-.5.3-1 .1-1-.4 0-.6.5-1.1 1-1.1.6 0 1 .2 1 .4zm-19.9 16.3c-1 1.7-1 1.6-1.1-.3 0-2.3 1.3-4.1 1.8-2.5.2.6-.1 1.8-.7 2.8zM284 433c0 .5-.5 1-1.1 1-.5 0-.7-.5-.4-1 .3-.6.8-1 1.1-1 .2 0 .4.4.4 1zm2 15c0 .5-.5 1-1.1 1-.5 0-.7-.5-.4-1 .3-.6.8-1 1.1-1 .2 0 .4.4.4 1zm92.3 3.2c3.1 1.5 3.3 2.1 1.3 3.7-1.6 1.4-7.1-.3-6.1-1.9.3-.5 0-1-.7-1-.9 0-.9-.3.2-1 1.9-1.2 2.1-1.2 5.3.2zm21 12.2c.9.7 1.7 1.6 1.7 1.9 0 .6-6.7 2.7-8.7 2.7-2.1 0-1.5-2.8.9-4.4 2.7-1.9 3.8-1.9 6.1-.2zM230 465.5c0 1.9-6.4 8.7-7.3 7.8-1.5-1.5-.5-4 2.5-6.5 3.8-3.2 4.8-3.4 4.8-1.3zm154.3 6c3.1.9 4.7 1 4.7.3 0-.6.7-.5 1.7.3.9.8 1.4.9 1 .2-1.2-1.9 8.6-1.4 12.8.7 2.7 1.4 4.3 1.7 5.6 1 1-.6 2-.6 2.3-.1.3.4 1.7.6 3.1.4 1.3-.3 4.3.2 6.5 1.1 5.1 2 7.9 2 10.1 0 1.7-1.5 2-1.5 4.4 0 1.4.9 2.5 2.1 2.5 2.6v1.5c0 .3-.3.5-.7.4-.3 0-1 .6-1.5 1.5-.7 1.3.2 2.6 3.7 5.9 3.4 3.2 4.7 5.2 5 8 .5 3.9-.2 4.5-2.5 2.4-1-.8-.9-.5.1.8 2.6 3.2 3.4 4.9 2 4.1-.9-.6-1.1.3-.8 3.4.4 3.6.1 4.3-1.5 4.8-1.5.4-1.6.7-.7 1.3 1.1.6 1 .9-.4 1.5-.9.3-1.7 1.5-1.7 2.7 0 1.1-.7 2.8-1.5 3.7-1.2 1.4-2.1 6.5-2.4 13.7-.1 1.5-.7 2.3-1.8 2.3-1.6.1-1.6.2-.3 1.3 1.8 1.5 2.7 7.3.9 6.2-.6-.4-.4.3.4 1.6 1.5 2.3 1.3 7.9-.2 7.9-.4 0-.8.7-.8 1.5s.4 1.5.8 1.5c.5 0 .6.7.3 1.5-.4.8-1.3 1.5-2.1 1.5s-1.1.5-.8 1c.7 1.1-1.6 5.2-4.2 7.8-.7.7-1.3 2-1.3 2.7 0 .8-1.3 2.3-3 3.5-1.6 1.2-3 2.8-3 3.5 0 .8-1.8 5.3-4 10.1-2.2 4.7-4 9.1-3.8 9.7.1.7-.9 3-2.3 5.2-1.3 2.2-2.3 4.4-2.1 4.8.1.5-.2.6-.7.3-.5-.3-1.2.1-1.5 1-.3.8-1 1.3-1.4 1-.5-.3-2 .1-3.5.9-1.4.7-2.8 1-3.1.7-.3-.3-1.6.4-2.9 1.5-1.2 1.1-3.1 2.4-4.2 2.8-1.8.7-1.8.9-.2 1.2.9.3 1.7.6 1.7.9 0 .8-4 4.4-5 4.4-.5 0-1.4.9-2 2-.9 1.8-1.8 2-6 1.6-2.9-.3-5-.1-5 .4 0 .6.9 1 2 1s2 .4 2 .9c0 1.6-5.2 5.1-6.4 4.4-.6-.3-.8-.3-.4.2 1.3 1.4-2.5 3.4-4.5 2.4-.9-.6-2.2-.7-2.7-.4-.6.3-1-.1-1-1s-.5-1.3-1-1c-.6.4-.8 1.1-.5 1.6.4.5-.2.9-1.1.9-1 0-1.4-.3-1.1-.7.4-.3.1-1.3-.6-2.1-1-1.3-.9-1.4.8-.9 2.4.8 5.3-.7 3.6-1.7-.6-.4-1.5-.4-2.1-.1-1.3.8-5.2-1.4-4.5-2.5.3-.5-.5-1.4-1.7-2.1-3.1-1.7-5.7-5.1-5.1-6.9.4-1.1.3-1.2-.4-.2-.7.9-1.7 1-4.1.1-1.8-.6-3.2-1.5-3.2-2 0-2-7.1-7.8-8.8-7.3-1.4.5-1.4.4-.2-.4.8-.6 1.8-.8 2.2-.6 1.2.8.9-1.1-.4-2.4-.7-.7-1.9-1.2-2.7-1.2-1.3 0-1.3.2-.2.9 1 .7 1 1 .1 1.6-1.4.9-3-1.1-3-3.7 0-.9-.5-2-1.1-2.3-.6-.4-.7-1.9-.4-3.6.4-1.9.3-2.9-.5-2.9-.7 0-1 .7-.6 1.7.7 1.7.6 1.7-.9.2s-2.2-3.5-2.4-6.7c-.1-.6-.8-1.2-1.6-1.2-.9 0-1.5-.6-1.4-1.3.3-2.2-.1-3.7-.8-3.6-2.2.4-3-.5-4.8-5-1.2-3.2-2.3-4.7-3.2-4.4-.9.4-1.1 0-.7-1.1.3-.9 1-1.3 1.5-1 .5.3.9 0 .9-.5 0-.6-1-1.1-2.1-1.1-1.6 0-2-.5-1.6-2 .3-1.1.2-2-.3-2-1.4 0-2.1-3.2-.9-4.6.9-1.1.8-1.4-.5-1.4-1.5 0-2.3-4.3-1.8-10.3.1-.9-.3-1.7-.9-1.7-.5 0-1.5-1.4-2-3-.6-1.7-1.8-3-2.6-3-1.3 0-1.3-.3-.3-1.5s1-1.5-.4-1.5c-1.9 0-2.1-1.6-.3-2.4.6-.3.3-.4-.8-.3-1.4.1-2.1-.5-2.3-2.1-.2-1.2-.9-2.2-1.5-2.2-.7-.1-.3-.8.8-1.8 1.1-.9 2.7-2.6 3.5-3.7 1.4-1.9 1.4-1.9-.4-.5-1.8 1.4-1.9 1.3-1.3-.3.6-1.5-.3-2.2-2.5-1.8-1 .1.2-3.1 2-5.1.8-1 1.8-1.5 2.3-1.2 1.6 1 5.8-2.7 6.1-5.4.2-1.5.9-2.7 1.7-2.7.8 0 1.5-.8 1.7-1.7.3-2.4 3.1-5.1 4.7-4.5.6.2 2.2.1 3.3-.4 1.4-.5 2.9-.3 4 .5 1.5 1.1 2.5 1.1 5.9-.1 5.7-2 17.3-2.2 18.5-.3.5.8.6 1.8.3 2.3-.3.5.3.5 1.3-.1 2.6-1.3 13.2-4 19.1-4.7 4.3-.6 11.1-2.4 15.3-4.2 1.6-.7 2.7-.9 4.9-1.1 1.1-.2.9-.7-.7-2.2-1.8-1.7-2.8-1.9-6.4-1.1-2.4.4-8.1.9-12.7 1-7.5.2-8.3 0-7.1-1.3 1-1.3 1-1.6-.4-1.6-.9 0-2.9-1.1-4.4-2.5-1.5-1.4-3.8-2.5-5.3-2.5-1.8 0-2.9-.8-3.7-2.5-.6-1.4-1.6-2.5-2.2-2.5-.5 0-1-.8-1-1.8 0-1.4.8-1.9 3-2 1.7 0 3.9-.4 5-.7 1.4-.5 2-.2 2 .9 0 2.2 1.3 2 2.8-.4.7-1.1 1.8-2 2.5-1.9.9 0 .9.2 0 .6-2.6 1-1.2 2.2 1.4 1.2 2-.7 2.8-.6 3.5.3.6 1 .8 1 .8 0 0-.6.6-1.2 1.4-1.2.8 0 1.6-.7 2-1.5 1-2.8 2.6-1.5 2 1.7l-.5 3.3 1.6-2.8c1.4-2.4 1.9-2.7 3.3-1.5 1.3 1.1 1.5 1.1 1-.3-.7-1.9.9-3.9 3.2-3.9.8 0 3.6.7 6.3 1.5zM342 482.3c0 .5-.4.5-1 .2-.5-.3-1-1.4-1-2.3 0-1.5.2-1.5 1-.2.5.8 1 1.9 1 2.3zm10.7 5.9c-.3.8-.6.5-.6-.6-.1-1.1.2-1.7.5-1.3.3.3.4 1.2.1 1.9zM254 490c0 .5-.4 1-1 1-.5 0-1-.5-1-1 0-.6.5-1 1-1 .6 0 1 .4 1 1zm194.1 81.3c2.1-.6 2.5.7.7 2.5-.9.9-.7 1.3.6 1.8 1.3.5 1.6 1.3 1 3.7-.5 2.3-.3 2.8.7 2.1 1.2-.6 1.2-.5 0 .9-.7.9-.9 1.7-.3 1.7 1.7 0-1.8 11.8-3.7 12.3-.9.3-2.4.8-3.3 1.2-1.3.5-2 0-2.8-2-.9-2.2-1.5-2.6-3.5-2.1-1.5.4-2.5.2-2.5-.5 0-.6-.8-.9-1.7-.7-2.4.5-5.6-3.1-4.3-4.7.5-.6.7-1.5.4-1.8-.4-.3.5-2.6 1.9-5 1.5-2.5 2.4-4.7 2.1-5-.6-.6 3.7-3.2 4.9-2.9.4.1.7-.4.7-1.1 0-.7.9-1.3 2-1.3s2 .4 2 .8.5.8 1 .8c.6 0 .9-.3.9-.8-.3-1.7.4-2.6.8-1.1.3 1.1 1.1 1.5 2.4 1.2zm-83.3 66.3c3.1.9 2.8 1.9-.6 1.9-1.6 0-2.9-.5-2.9-1.3 0-1.4.3-1.4 3.5-.6zM391 641c1.8 1.8 2 1.8 2.9.2.9-1.5 1-1.4 1.1.5 0 1.6.6 2.3 2 2.3 1.1 0 2 .7 2 1.5 0 1.9-3.2 8.5-4.1 8.5-.4 0-2.1 1.2-3.8 2.6-1.7 1.4-3.5 2.3-4.1 1.9-.5-.3-1 .1-1 .9 0 .9-.3 1.6-.7 1.6-1.6-.1-5.4-4-5.1-5.2.1-.7-.3-2.2-.9-3.4-.9-1.6-.9-2.6.2-4.5.8-1.3 1.8-3.1 2.2-3.9 1-2 4.5-4.9 6.1-5 .6 0 2.1.9 3.2 2zm-28.2 9.2c-.2.9 1.1 1.2 4.4 1.1l4.7-.3-.1 5.8c-.2 5.8.5 11.7 2.4 20.9 1.8 8.4 2.9 6.7 2.9-4 0-1.8.4-2.5 1.1-2.1.7.5.9.2.6-.8-.8-2 .7-4.2 2.2-3.3.8.5.9 1 .1 1.8-.7.7-.5 1.4.7 2.3.9.7 1.7 1.8 1.7 2.6 0 .7 2.2 2.5 5 4 2.7 1.4 5.4 3.4 6.1 4.2.6.9 1.6 1.6 2.2 1.6.6 0 1.3 1.8 1.7 4 .4 2.6 1.1 3.8 1.8 3.3.7-.3.4.3-.7 1.5-1.7 1.9-1.7 2.2-.2 3.7 1.8 1.8 1.2 3.9-.9 3.1-1.3-.5-2.1 1.3-3.1 6.6-.3 1.6-.1 2.8.5 2.8 2 0 1.1 3.8-.9 4.3-1.6.4-2 1.1-1.6 3 .3 1.6-.1 2.7-1 3.1-.8.3-1.4-.1-1.4-.9s-.4-1.5-1-1.5c-.5 0-1 .4-1 .9 0 1.6-3.8 2-4.4.4-.3-.8-1-1.2-1.5-.8-1.2.7-4.2-3.5-3.5-4.7.3-.4 1-.6 1.5-.3s.6-.1.3-.9-1.4-1.3-2.5-1.1c-1.1.2-1.9-.2-1.9-1s-.6-1.8-1.2-2.2c-.7-.4-2.2-2.4-3.3-4.3-1-1.9-3.4-5-5.2-6.9-1.8-1.8-3.2-3.6-3.1-4 .1-.3-.8-2.5-2-4.9-1.2-2.3-2.4-6.7-2.7-9.8-.2-3.1-.9-6.2-1.5-6.9-.8-1-.8-1.5 0-2 .7-.5.9-2 .5-4.1-.4-2.4-.2-3.4.7-3.4.9 0 .9-.3-.2-1-1.2-.8-1.1-1.3.9-3.4 1.8-1.9 2.1-2.8 1.2-4.4-1-1.9-.6-3.2 1.1-3.2.4 0 .7.6.6 1.2zm20 13.6c.6 1.8-1.5 1.4-2.2-.4-.4-1-.1-1.4.6-1.2.6.2 1.4 1 1.6 1.6zm-59.2 34.9c-.5 1.2-.9 1.3-2.1.3-1.8-1.5-1.9-3.7-.2-4.3 1.6-.5 3 2 2.3 4zm360.4-1.3c-1.4 1.4-2.4 0-1.6-2.1.6-1.5.8-1.5 1.6-.3.6.9.5 1.9 0 2.4zm-356 7.1c0 .8-.4 1.5-1 1.5-.5 0-1-.5-1-1.1 0-.8-.5-.7-1.5.1-1.7 1.4-3.1.8-2-.9 1-1.7 5.5-1.3 5.5.4zm343.7 7.7c-.3.8-.6.5-.6-.6-.1-1.1.2-1.7.5-1.3.3.3.4 1.2.1 1.9zM335 732.1c0 1.1-2.7 1.2-3.4 0-.3-.4-.3-1.1 0-1.4.8-.8 3.4.3 3.4 1.4zm7 9.9c0 .5-.4 1-1 1-.5 0-1-.5-1-1 0-.6.5-1 1-1 .6 0 1 .4 1 1zm314.7.5c0 .8-.4 1.5-.9 1.5-1 0-1.1-1.4-.1-2.3.9-1 1-.9 1 .8zM516 965.1c0 .5.5.7 1.2.3.7-.5.8-.3.3.5-.5.9-1.1.9-1.7.3-.6-.6-1.8-.8-2.7-.5-1.4.4-1.4.3-.1-.6 1.9-1.4 3-1.4 3 0z"/><path d="M415.6 483.3c.3 1 .9 1.5 1.2 1.2.3-.3 0-1.1-.7-1.8-1-.9-1.1-.8-.5.6zM429.7 486c-.4 1.5 0 2 1.3 2 1.1 0 1.7-.6 1.6-1.7-.4-2.5-2.3-2.7-2.9-.3zM424 485.8c0 1.2 1.9 2.6 2.6 1.9.2-.2-.2-1-1.1-1.7-.9-.8-1.5-.8-1.5-.2zM433.4 489.6c-1.9 4-1.9 4.4-.4 4.4 1.8 0 5-3 5-4.6 0-.6-.6-1.7-1.2-2.6-1.1-1.4-1.6-1.1-3.4 2.8zM417.6 488.2c.3.5.9.7 1.2.4.3-.3 1.1-.1 1.9.5.9.9 1.3.8 1.3 0 0-.6-.3-1.1-.7-1.2-.5 0-1.6-.2-2.6-.4-.9-.2-1.4.1-1.1.7zM302.2 520.1c-1.9 3-1.1 3.2 1.7.3 1.5-1.5 1.8-2.4.9-2.4-.7 0-1.9.9-2.6 2.1zM345.7 616.1c.7.7 1.5 1 1.8.7.3-.3-.2-.9-1.2-1.2-1.4-.6-1.5-.5-.6.5zM393.5 48c2.7 1.2 4.3 1.2 2.5 0-.8-.5-2.2-.9-3-.9-1 0-.8.3.5.9zM345 50c-.7.4-2.1.5-3.2.2-1.1-.2-2.8.4-4.1 1.6-1.2 1.1-3.3 2.2-4.7 2.5l-2.5.4 2.7.2c1.8.1 2.5.6 2.4 1.7-.4 2.5-2.8 3.5-4.2 1.6-1.1-1.5-1.4-1.4-2.3 1.1-1.4 3.7-1.4 4 .4 3.3 1.9-.7 2 1.8 0 4.7-.9 1.5-1.1 2.7-.5 3.7.8 1.2 1 1.1 1-.7 0-1.2.9-2.7 2.1-3.3 2.5-1.4 3.1-.9 3.3 2.4.1 2.2 3.5 5.7 3.7 3.9 0-.5.2-1.6.4-2.5.2-1-.1-2.1-.7-2.4-.5-.4.3-1.5 1.8-2.5s3.1-1.6 3.6-1.3c.4.3 1-.7 1.4-2.1.3-1.4 1-2.5 1.5-2.5s.9-.9.9-2.1c0-1.4.5-1.9 1.4-1.6 1.5.6 3.2-3.6 2.1-5.2-.7-1.2-5.2-1.9-6.5-1.1zm.7 8.2c-.3.8-.6.5-.6-.6-.1-1.1.2-1.7.5-1.3.3.3.4 1.2.1 1.9zM364 50.1c0 .5.5.7 1 .4.6-.3 1-.8 1-1.1 0-.2-.4-.4-1-.4-.5 0-1 .5-1 1.1zM354 52.4c0 1.3.7 2.6 1.5 3 1.6.6 2-1 .9-3.8-.9-2.4-2.4-1.9-2.4.8zM359.2 56.5c0 1.6.2 2.2.5 1.2.2-.9.2-2.3 0-3-.3-.6-.5.1-.5 1.8zM404 59c0 .5.5 1 1.1 1 .5 0 .7-.5.4-1-.3-.6-.8-1-1.1-1-.2 0-.4.4-.4 1zM359 63.1c0 .5.5.7 1 .4.6-.3 1-.8 1-1.1 0-.2-.4-.4-1-.4-.5 0-1 .5-1 1.1zM347.8 76.3c-1.2 2.9-1 7.3.3 6 .6-.6.9-2.6.7-4.4-.2-2.6-.5-3-1-1.6zM357 82.5c0 .8.2 1.5.4 1.5s.6-.7 1-1.5c.3-.8.1-1.5-.4-1.5-.6 0-1 .7-1 1.5zM640 101.9c0 .5.7 1.1 1.5 1.5.8.3 1.5.1 1.5-.3 0-.5-.7-1.1-1.5-1.5-.8-.3-1.5-.1-1.5.3zM277.5 104.1c-.4.6-.5 1.2-.2 1.5.2.3.7-.2 1-1.1.7-1.7.1-2-.8-.4zM268 105.5c-.7.9-1 1.8-.7 2.1.3.3 1-.4 1.7-1.5 1.3-2.5.8-2.7-1-.6zM652.7 112.5c2.6 3 5.1 5.5 5.6 5.5.4 0 .7.6.7 1.4 0 .8.4 1.8 1 2.1.6.4.7-.2.2-1.4-.9-2.6-10-13.1-11.3-13.1-.6 0 1.1 2.5 3.8 5.5zM263.6 113.5c-.9 2.6-.7 3.2.5 1.2.6-1 .9-2.1.6-2.3-.2-.3-.7.2-1.1 1.1zM254.7 113.7c-.3.5-.1 1.7.4 2.8.7 1.7.8 1.7.8-.8.1-2.7-.4-3.4-1.2-2zM250.7 121c-.4 1.4-.7 3.6-.7 5 0 2.1.2 2.2 1.4 1 1.1-1.1 1.3-2.5.7-5-.7-3.3-.7-3.4-1.4-1zM214 173.1c0 1.5.7 3.2 1.5 3.9 2 1.7 2-.5 0-4l-1.4-2.5-.1 2.6zM211.5 191c-.3.5-.2 1 .4 1 .5 0 1.3-.5 1.6-1 .3-.6.2-1-.4-1-.5 0-1.3.4-1.6 1zM208 205.2c0 .7-.3 2.4-.7 3.6-.5 2.2-.4 2.3 1.5 1.1 1.1-.7 1.9-1.6 1.6-2-.2-.4 0-1 .6-1.4.6-.4.8-1.1.5-1.6-.9-1.3-3.5-1.1-3.5.3zM620.5 373c-.3.5 0 1 .8 1s2.6.9 4 2 2.8 1.6 3.1 1.2c.3-.5-1.2-1.9-3.4-3.1-2.4-1.3-4.1-1.8-4.5-1.1zM597 377c0 .5-.7.7-1.5.4-.8-.4-1.5-.1-1.5.4 0 .8-.9.8-3.1 0s-3.4-.7-4.2.1c-.6.6-2 1.1-3.2 1.1-1.2 0-2.6.5-3.3 1.2-.6.6-4 1.3-7.4 1.4-5.6.3-16.8 3.2-12.6 3.4 2.8 0 3.1 1.9.4 3-1.4.5-2.6 1.3-2.6 1.8s-1.6 1.6-3.5 2.5c-3.5 1.7-4.3 3.1-2.6 4.2 1 .6-3.7 8.5-5.1 8.5-.5 0-.6 1.1-.4 2.5.3 1.4 0 2.5-.5 2.5s-.9-1.7-1-3.8c0-2-.4-4.6-.9-5.7-.7-1.7-.9-1.6-1 1-.1 2.9-.1 2.9-1.5 1.1-.8-1.1-1.5-1.5-1.5-.9 0 .7.5 1.5 1 1.8.6.4.8 1.1.4 1.6-.3.6-.7 2.6-.9 4.7l-.3 3.6 1.9-2.3c1.5-1.8 1.9-1.9 1.9-.7 0 .9-.4 1.6-.8 1.6-1.3 0-8.7 7.4-8.4 8.3.4 1.3-3.1 3.7-4.5 3.2s-1.8.7-.6 1.8c.3.4.8 3.6.9 7.1.2 5.3-.1 6.7-1.7 8.2-1 .9-1.9 2.4-1.9 3.3.1 1.5.2 1.5 1.3 0 1.2-1.6 1.7-1.5 6.4.9 3.4 1.8 7.2 1.4 10.4-.9 2.8-1.9 3.1-2 5.4-.5 2.3 1.5 2.6 1.4 5.1-.9 4.1-3.8 6.1-3.1 2.2.8-3.5 3.4-9 11-10 13.8-1 2.7.5 4.1 3.3 3l2.4-1H551l-2.4-.1 2.2-1.6c2.5-1.7 5.8-1.5 5.4.5-.2.9.3.9 1.9.1 1.1-.7 2.3-.9 2.6-.6.3.2 1.7 0 3.2-.6 3-1.1 8.6-2 14.8-2.2 2.4-.1 4.8-.8 5.5-1.5 1.1-1.1.9-1.2-1-.6-1.6.5-3 .1-4.4-1.2-1.1-1-2.3-1.8-2.7-1.8-.5 0-.3-4.6.2-5.2.1-.1 1.3-.4 2.7-.7 2.1-.5 2.9 0 5.4 3.8 2.7 3.9 3.4 4.4 7.8 4.9 5.1.6 13.5-.5 16.8-2.3 1-.5 3.2-1 4.8-1 4.5 0 8.9-1.9 10.7-4.7 1.6-2.4 1.7-2.4 3.5-.6 1 1 1.4 2.2.9 2.8-.5.7.3 1.5 2.1 2.2 2.5.9 3 .9 3-.4 0-1.2.3-1.3 1.4-.4.9.8 1.5.8 1.8.2.6-1.8 4.8 0 4.8 2 0 2.2 1.8 2.6 2.6.5.4-1 2.1-1.2 6.7-.9 3.4.2 6.8.6 7.5.8.8.3 1.8.3 2.2 0 1.6-1-.2-3.5-4.1-5.7-2.1-1.2-3.9-2.8-3.9-3.5 0-1.7.9-1.6 5.4.2 2 .8 3.6 1.3 3.6 1.1 0-.9-6.2-6.6-12-11.2-3.3-2.6-5.7-5.1-5.3-5.7.3-.6.1-.7-.5-.3-.7.4-1.2.1-1.2-.7 0-1-.7-1.3-2-1-1.4.4-2 0-2-1.1 0-.9-.4-1.6-1-1.6-.5 0-1 .5-1 1.1 0 .8-.4.8-1.5-.1-.8-.7-2.3-.9-3.7-.4-2 .6-2.1.5-.9-.9.7-.9 1.7-1.4 2.2-1.1.5.2 2.1-.3 3.6-1.3s2.4-1.3 2-.6c-1.1 1.7 1.6 2.2 3.4.6.9-.7 3.6-1.7 6-2.2 4.2-.8 4.3-.8 1.6-1.6-1.5-.4-2.6-1.2-2.4-1.8.4-1.4 3.9-1.8 5.4-.5.7.5 2.4.7 3.7.4 2.9-.7 5.8.2 5 1.6-.4.6.1.8 1.4.4 1.4-.5 2.4-.1 3.2 1.1.8 1.3 1.3 1.4 1.6.5.3-.6 1.3-1.2 2.2-1.2 2.5-.1 11.5-5.4 11.1-6.5-.2-.6-1.5-1.1-2.9-1.1-5-.2-5.6-.5-3.5-1.4 1.1-.4 3.7-.6 5.8-.3 2.4.4 3.7.2 3.7-.6 0-.6-1-1.1-2.2-1.1-3.4 0-6.8-1.1-6.8-2.2 0-.5.9-.6 2-.3s2 .2 2-.3 1-1.4 2.3-2c2.1-1 2.1-1.1.2-1.2-1.1 0-2.9-.7-3.9-1.5-1.9-1.5-1.9-1.5.2-1.5 3.2 0 2.7-1.8-.5-2.2-1.6-.2-2.8-.9-2.8-1.6 0-.8-.8-1.9-1.7-2.6-1-.7-1.8-1.7-1.8-2.2 0-.6-.9-1-2-1.1-1.1-.1-1.8.2-1.5.8.9 1.4-1.8 1.1-4.2-.6-1.6-1.1-2.2-1.2-2.5-.3-.4 1-1.1.9-3.4-.2-4.6-2.3-4.7-2.3-3.9-1 1.1 1.8-4.4.9-7.7-1.2-2.3-1.6-2.8-1.7-4.1-.3-.9.8-2.1 1.5-2.8 1.5-.7 0-.5-.6.6-1.4 1.8-1.3 1.7-1.4-1.1-2.7-3.5-1.7-7-1.8-6.6-.1.2 1.4-1.4 1.6-2.2.3-.4-.5-2.5-1.2-4.9-1.6-2.3-.4-4.7-1.1-5.3-1.6-1.3-1.1-9.9-.7-11 .4-1 1-5.8.9-8.8-.3-1.6-.6-2.6-.6-2.6 0zm14 1c0 .5-.5 1-1.1 1-.5 0-.7-.5-.4-1 .3-.6.8-1 1.1-1 .2 0 .4.4.4 1zm6.1.8c-.7.2-1.8-.1-2.3-.6-.8-.8-.4-.9 1.3-.5 1.3.4 1.8.8 1 1.1zm-28.1.7c0 1-1 1.5-3.2 1.5l-3.3-.1 3-1.4c1.7-.7 3.1-1.4 3.3-1.4.1-.1.2.6.2 1.4zm16.5.5c.9-.7 1.5-.7 1.9-.1.4.5-.2 1.2-1.3 1.6-2.3.7-7.1-.4-7.1-1.6 0-.5 1.2-.4 2.6.1 1.8.7 3.1.7 3.9 0zm17.3.8c.3 1.1 0 1.2-1.6.3-1-.6-2.3-.7-2.7-.3-.5.4-.5.1-.1-.6 1-1.6 3.8-1.2 4.4.6zm22.7 4.2c.3.5.2 1-.4 1-.5 0-1.3-.5-1.6-1-.3-.6-.2-1 .4-1 .5 0 1.3.4 1.6 1zm-4.5 2.6c0 .2-.7.4-1.5.4s-1.5-.4-1.5-1c0-.5.7-.7 1.5-.4.8.4 1.5.8 1.5 1zm13.5.2c-.3.3-1.1 0-1.8-.7-.9-1-.8-1.1.6-.5 1 .3 1.5.9 1.2 1.2zm9-.8c.3.5.2 1-.4 1-.5 0-1.3-.5-1.6-1-.3-.6-.2-1 .4-1 .5 0 1.3.4 1.6 1zm6.6 2c.5 0 .9.7.9 1.5s.9 2.4 2 3.5c1.3 1.3 1.6 2.2.8 2.6-.6.4-1.7-.2-2.5-1.2s-2.3-2.9-3.3-4.2c-2.4-2.7-2.5-3.6-.4-2.8.9.3 2 .6 2.5.6zm-114 6.3c-1 1.1-2.4 1.6-3 1.2-1.7-1 .3-3.1 2.9-3.1 2 0 2 .1.1 1.9zm-12.4 11.9c-.3.8-.6.5-.6-.6-.1-1.1.2-1.7.5-1.3.3.3.4 1.2.1 1.9zm104.9 1.3c-1.1.8-2.9 1.5-4 1.5-2 0-2 0 0-1.5 1-.8 2.8-1.4 3.9-1.4 2 0 2 0 .1 1.4zm-23.5 8.7c4.1 1.2 5.2 2.8 2 2.8-2.9 0-7.1-1.8-7.1-3 0-1.3.4-1.3 5.1.2zM605 421c0 .5-.5 1-1.1 1-.5 0-.7-.5-.4-1 .3-.6.8-1 1.1-1 .2 0 .4.4.4 1zm6 1c0 .5-.2 1-.4 1-.3 0-.8-.5-1.1-1-.3-.6-.1-1 .4-1 .6 0 1.1.4 1.1 1zm10.5 1c.3.5-.1 1-.9 1-.9 0-1.6-.5-1.6-1 0-.6.4-1 .9-1 .6 0 1.3.4 1.6 1zm-9.6 6.7c.3.2-.4 1.3-1.5 2.4-1.7 1.6-2.5 1.8-4.7 1-2.8-1.1-3.6-3.6-1.4-4.4 1.2-.5 6.8.2 7.6 1zM644 432l2.5 2h-2.3c-2.5 0-5.5-2.3-4.5-3.4 1-.9 1.6-.7 4.3 1.4zm7.4 4.1c2.1 1.7 2.5 2.4 1.5 3.3-.8.8-1.3.8-1.6-.2-.3-.6-1-1.2-1.6-1.2-2.1 0-4-1.7-3.3-2.9 1-1.6 2-1.4 5 1z"/><path d="M645 376.6c0 .5 1.9 1.9 4.3 3 4.6 2.4 7.7 3.6 7.7 3 0-.7-7.5-5-8.4-4.8-.4.2-1.4-.3-2.2-.9-.8-.6-1.4-.8-1.4-.3zM664.4 378.9c.4.6 1.3 1.1 2 1.1 1.8 0 8.3 6 6.5 6-1 .1-.8.5.5 1.5 2.6 2 4 1.9 3.2-.3-.4-1 .2-.7 1.4.8 1.1 1.4 2 2 2 1.5 0-2-9.7-10.3-12.9-11-2.4-.5-3.1-.4-2.7.4z"/><path d="M660.1 379.4c2.2 1.8 10.1 5.7 9.8 4.7-.3-.7-.7-1.1-.9-.9-.3.1-2.1-.7-4.1-2-3-1.8-6.3-3.1-4.8-1.8zM551.9 382.5c-.1.3-.2 1-.3 1.5 0 .6-.8 1.5-1.6 2s-1 1-.5 1c1.8 0 3.2-1.5 3.2-3.3 0-1.6-.5-2.4-.8-1.2zM547.1 385.6c0 1.1.3 1.4.6.6.3-.7.2-1.6-.1-1.9-.3-.4-.6.2-.5 1.3zM558.8 386.7c.7.3 1.6.2 1.9-.1.4-.3-.2-.6-1.3-.5-1.1 0-1.4.3-.6.6zM553.5 388c-.3.5.1 1 .9 1s1.8-.5 2.1-1c.3-.6-.1-1-.9-1s-1.8.4-2.1 1zM546 389.9c-.8 1.5-.7 1.9.5 1.7.8-.1 2.1-.8 2.8-1.6.9-1.1.8-1.1-.7 0-1.8 1.4-1.9 1.3-1.3-.3.9-2.3 0-2.2-1.3.2zM357 393.4c.7.7 1.3.7 2 0 .6-.6.3-1-1-1s-1.6.4-1 1zM542.1 394.2c-.1 3 1.4 4.6 2.3 2.3.3-.8.1-1.5-.4-1.5s-1.1-.8-1.3-1.8c-.3-1.1-.5-.7-.6 1zM353.5 396c.3.5 1.2.7 2 .3 2.1-.7 1.9-1.3-.6-1.3-1.1 0-1.8.4-1.4 1zM548.9 398.7c-1.3 1.6-1.2 1.7.4.4.9-.7 1.7-1.5 1.7-1.7 0-.8-.8-.3-2.1 1.3zM529.9 404.7c-.6 1.7-.6 3 0 3.6.5.5.7 1.7.4 2.6-.3 1.1-.1 1.1.7-.3.9-1.4.9-2 .1-2.6-.8-.5-.9-1.4-.2-3.3.6-1.5.8-2.7.6-2.7-.3 0-1 1.2-1.6 2.7zM535 407.9c.7 1.4 1.6 3.6 2 5 .6 2.4.7 2.4 1.2.5.3-1.3-.4-3.1-1.9-5-2.1-2.5-2.3-2.5-1.3-.5zM522.7 409.1c.7.7 1.5 1 1.8.7.3-.3-.2-.9-1.2-1.2-1.4-.6-1.5-.5-.6.5zM525.7 416.1c.7.7 1.5 1 1.8.7.3-.3-.2-.9-1.2-1.2-1.4-.6-1.5-.5-.6.5zM646.2 420.4c1.3 1.4 2.8 1.2 2.8-.5 0-.5-.9-.9-2-.9-1.7 0-1.9.2-.8 1.4zM452.5 427c-.3.5-.1 1 .4 1 .6 0 1.1-.5 1.1-1 0-.6-.2-1-.4-1-.3 0-.8.4-1.1 1zM783.3 430.1c-4.9 2.4-17.3 13.5-17.3 15.4 0 .7 1.4 1.6 3 2 1.7.4 3 1.1 3 1.6 0 1.5 4 1 5.6-.6.9-.8 2.6-1.5 4-1.5s2.7.7 3 1.5c1 2.5 2.2 1.7 4.2-2.8 1.1-2.3 3.1-5.6 4.6-7.2 3.2-3.7 3.3-6 .4-7.9-4.1-2.5-6.2-2.6-10.5-.5zM588.5 457c-.3.5-.1 1 .4 1 .6 0 1.1-.5 1.1-1 0-.6-.2-1-.4-1-.3 0-.8.4-1.1 1zM607.7 458.1c.4 1.3.8 1.8 1.1 1 .2-.7-.1-1.8-.6-2.3-.8-.8-.9-.4-.5 1.3zM569.7 471.7c-.4.3-.7 1.1-.7 1.6 0 .6.3.7.6.4.4-.3 1.6-.1 2.7.5s3.7 1.3 5.6 1.5c2 .2 5 .9 6.7 1.4 4.6 1.4 18.3.4 20.3-1.5 1.4-1.5.6-1.6-8.4-1.7-17.8-.1-22-.4-23.3-1.7-1.5-1.3-2.5-1.5-3.5-.5zM465.3 566.5c-.3.9-.3 1.8-.1 2.1.3.3.8-.4 1.1-1.6.6-2.3-.1-2.7-1-.5zM728 577.8c0 1.1 5 5.7 7.7 7.1 1.2.6 3.9 1.1 6 1l3.8-.1-3.9-.9c-2.1-.5-6.1-2.5-8.8-4.4-2.6-1.9-4.8-3.1-4.8-2.7zM709.5 598.5c.4 2.5 0 3.9-1.4 5.2-1.8 1.8-2.7 4.4-3.8 11.2-.4 2.7-.3 3.2.8 2.7.8-.4.6-.1-.3.7-1 .8-1.8 2.2-1.8 3.1 0 1-.8 1.6-2.1 1.6-1.2 0-1.9.5-1.6 1.2.3 1.2 1.3 1.3 4.7.9.6 0 1-1.3 1-2.7 0-1.7.6-2.8 2-3.1 2.2-.6 2.6-2.3.9-4-.7-.7-.7-1.6 0-2.9 2.5-4.7 4.1-17.4 2.1-17.4-.5 0-.7 1.6-.5 3.5zM604.6 601.3c-.3 1.2-.1 2.6.4 3.1.6.6 1 2 1 3.2 0 2.2 10.8 12.7 17 16.7 1.7 1 3 2.3 3 2.8s1.5 2.6 3.4 4.6c1.8 2.1 4.2 5.5 5.3 7.6 1.8 3.6 2 3.7 3.4 2.1 1.8-2.2 1.7-11.8-.2-14-.7-.9-1.4-2.3-1.6-3.2-.1-.9-1.6-2.8-3.3-4.2-1.6-1.4-3-3-3-3.7 0-1.5-5.6-5.8-10.1-7.7-1.8-.8-4.6-2.5-6-3.8-1.4-1.3-3.9-3-5.6-4-3-1.5-3.1-1.5-3.7.5z"/><path d="M700.6 615.9c-.4.5-.2 1.2.3 1.5.5.4 1.2.2 1.5-.3.4-.5.2-1.2-.3-1.5-.5-.4-1.2-.2-1.5.3zM698.7 636c-.3 1.3 0 2 .9 2 1.5 0 1.9-2.6.5-3.4-.5-.3-1.1.3-1.4 1.4zM695 646c0 .5.5 1 1 1 .6 0 1-.5 1-1 0-.6-.4-1-1-1-.5 0-1 .4-1 1zM694.7 649.4c-.3.8-.2 1.8.4 2.2 1.6.9 2.2-.2 1.1-2.1-.8-1.5-1-1.6-1.5-.1zM687.9 660.7c-1.8 2.1-.3 4.4 2.1 3.5 2.1-.8 2.8-3 .7-2.4-.7.2-.6-.2.1-1.1.9-1.1.8-1.4-.3-1.4-.9 0-2 .6-2.6 1.4zM568 666.6c-4.8 1.7-7.4 3.4-4.9 3.4.7 0 2.3-.7 3.3-1.5 1.1-.8 3-1.5 4.3-1.5 1.3 0 2.3-.5 2.3-1 0-.6-.1-1-.2-1-.2.1-2.3.8-4.8 1.6zM540.8 671.7c.7.3 1.6.2 1.9-.1.4-.3-.2-.6-1.3-.5-1.1 0-1.4.3-.6.6zM678 680.9c0 1.2 2.9 3.5 3.6 2.8 1.1-1-.5-3.7-2.1-3.7-.8 0-1.5.4-1.5.9zM674.6 691.9c-.4.5-.2 1.2.3 1.5.5.4 1.2.2 1.5-.3.4-.5.2-1.2-.3-1.5-.5-.4-1.2-.2-1.5.3zM661.2 721.9c.1 2.6.3 2.8 1.5 1.5.8-.8 1.2-2.1.9-2.9-.9-2.6-2.5-1.6-2.4 1.4zM570 736.9c0 .6-.6 1.1-1.4 1.1-.7 0-1.9.7-2.6 1.6-1.1 1.2-1 1.8.3 3.1 1.5 1.5 1.8 1.5 3.7-.2 2.1-1.9 2.7-5 1-6-.5-.3-1-.1-1 .4zM295.6 759.4c-6.9 9.2-16.6 26.6-16.6 29.7 0 2.6-3.1 10.9-4.1 10.9-.5 0-.9.7-.9 1.6 0 2.4-2.8 4.7-5.1 4.1-1.6-.4-3.8 1.2-9.2 6.6-4 4-8.3 8.8-9.7 10.6-3.3 4.6-5.8 7.1-7 7.1-.6 0-3.9 2.8-7.3 6.2-12.4 12.4-19.3 18.5-24.4 21.9-2.9 1.8-5.3 3.7-5.3 4.1 0 1.1-11.9 9.8-18.5 13.4-3.4 1.9-7.2 3.4-8.5 3.4-3.4 0-37.8 17.6-41 21-.3.3-1.3.9-2.2 1.5-9.5 5.6-29.9 20.2-37.3 26.7-2.3 2.1-4.8 3.8-5.4 3.8-.7 0-1.9 1.6-2.7 3.5-.8 2-2.5 4-3.9 4.5-1.3.5-2.9 1.8-3.5 3-.6 1.1-1.8 2-2.6 2-1.8 0-4.4 2.3-4.4 3.9 0 .6-.3 1.1-.7 1.1-.5 0-3.9 2.8-7.8 6.1-4 3.5-10.5 7.8-15 10-4.4 2.1-10.2 5.9-13 8.4-2.7 2.5-5.5 4.5-6.2 4.5-.6 0-2.5 1.1-4.1 2.5-1.7 1.4-3.3 2.5-3.7 2.5-.9 0-3.5 2.7-3.5 3.7 0 .5-1.8 1.6-4 2.6-2.2.9-4 2.1-4 2.7 0 .5-.6 1-1.3 1-.7 0-2 .8-2.8 1.7-.9 1-2.5 2.3-3.5 3-1.5.9 36.8 1.2 170.8 1.2l172.7.1-3.6-7.8c-2-4.2-8.3-18.5-14-31.7-5.7-13.2-11.1-25.4-11.9-27.2-.8-1.7-1.4-3.9-1.4-5 0-1-1.2-4.3-2.6-7.3-1.4-3-3.3-7.8-4.1-10.5-.8-2.8-2.1-6.4-2.8-8-4.8-10.9-10.7-37.7-8.5-39 .8-.5-1.1-11.3-2.3-13.2-2.1-3.4-3.8-17-3.8-29.4.1-11.8.5-15.2 3.1-25.3 1.6-6.4 4.1-13.9 5.5-16.7 2.4-4.7 2.6-5.8 2.1-14.3-.3-5-.5-10.3-.5-11.9-.1-1.5-.7-2.7-1.3-2.7-.7 0-4.4 4.2-8.2 9.4zM627.6 767.9c-.3.5.1 1.4.9 2.1 1.2 1 1.5 1 1.5-.3 0-1.9-1.6-3.1-2.4-1.8zM671.5 769.2c-.2.7-1.6 7.1-3.1 14.2l-2.8 12.8 2.1 1.8c2.3 1.8 3.3 5.2 8.3 27.4 5.5 25.1 6.1 31.4 6.3 65.6 0 18.3-.4 35.8-1.1 41.9-.7 5.7-1.2 23.1-1.2 38.7v28.4h320v-74.5l-19.9-10.2c-10.9-5.6-22.3-11.2-25.2-12.3-3-1.2-13-5.9-22.4-10.5-26.9-13.2-52.1-23.7-69.5-28.9-4.7-1.4-11-3.9-14-5.5-27.1-14.6-44.3-21.6-65.5-26.6-10.9-2.6-20.6-5.3-36.1-10.1-15.5-4.7-43.3-23.8-63.2-43.3-5.6-5.5-10.7-10.1-11.3-10.1-.5 0-1.1.6-1.4 1.2zM480.6 771.6c-.9 2.2.3 3.2 1.4 1.4 1.2-1.9 1.2-3 .1-3-.5 0-1.2.7-1.5 1.6zM620.5 774c.3.5.8 1 1.1 1 .2 0 .4-.5.4-1 0-.6-.5-1-1.1-1-.5 0-.7.4-.4 1zM471 778.1c0 .5.5.7 1 .4.6-.3 1-.8 1-1.1 0-.2-.4-.4-1-.4-.5 0-1 .5-1 1.1zM499.1 783.6c0 1.1.3 1.4.6.6.3-.7.2-1.6-.1-1.9-.3-.4-.6.2-.5 1.3zM479.1 788.6c0 1.1.3 1.4.6.6.3-.7.2-1.6-.1-1.9-.3-.4-.6.2-.5 1.3zM494.6 792.5c-.8 2.1 1.4 4.1 2.6 2.2 1.1-1.7 1-2.9-.1-2.3-.5.4-1.1.1-1.3-.6-.3-.7-.7-.4-1.2.7zM480 793c0 .5.5 1 1 1 .6 0 1-.5 1-1 0-.6-.4-1-1-1-.5 0-1 .4-1 1zM510.1 793.9c-.7.5-1.2 1.4-1 2 .2.6 1 .2 1.7-.9 1.4-2.2 1.3-2.3-.7-1.1zM535.2 798c0 1.4.2 1.9.5 1.2.2-.6.2-1.8 0-2.5-.3-.6-.5-.1-.5 1.3zM586.5 805c-1 1.6.7 3.1 2.3 2.1 1-.6 1-1-.2-2-1-.9-1.6-.9-2.1-.1zM583 806c0 .5.5 1 1.1 1 .5 0 .7-.5.4-1-.3-.6-.8-1-1.1-1-.2 0-.4.4-.4 1zM524.7 808.5c-.4.8-.2 1.7.3 2 .6.4 1-.3 1-1.4 0-2.5-.6-2.7-1.3-.6zM559.6 813.5c.4.8.8 1.5 1 1.5.2 0 .4-.7.4-1.5s-.4-1.5-1-1.5c-.5 0-.7.7-.4 1.5z"/></svg>